<?xml version="1.0" encoding="UTF-8" standalone="no"?>
<svg
   xmlns:dc="http://purl.org/dc/elements/1.1/"
   xmlns:cc="http://creativecommons.org/ns#"
   xmlns:rdf="http://www.w3.org/1999/02/22-rdf-syntax-ns#"
   xmlns:svg="http://www.w3.org/2000/svg"
   xmlns="http://www.w3.org/2000/svg"
   xmlns:sodipodi="http://sodipodi.sourceforge.net/DTD/sodipodi-0.dtd"
   xmlns:inkscape="http://www.inkscape.org/namespaces/inkscape"
   sodipodi:docname="BobbinFront.svg"
   inkscape:version="1.0 (4035a4fb49, 2020-05-01)"
   id="svg978"
   version="1.1"
   viewBox="0 0 70.700348 57.80199"
   height="57.801991mm"
   width="70.700348mm">
  <defs
     id="defs972" />
  <sodipodi:namedview
     inkscape:window-maximized="1"
     inkscape:window-y="0"
     inkscape:window-x="0"
     inkscape:window-height="1022"
     inkscape:window-width="1920"
     fit-margin-bottom="0"
     fit-margin-right="0"
     fit-margin-left="0"
     fit-margin-top="0"
     showgrid="false"
     inkscape:document-rotation="0"
     inkscape:current-layer="layer1"
     inkscape:document-units="mm"
     inkscape:cy="104.16029"
     inkscape:cx="57.59425"
     inkscape:zoom="2.8284271"
     inkscape:pageshadow="2"
     inkscape:pageopacity="0.0"
     borderopacity="1.0"
     bordercolor="#666666"
     pagecolor="#ffffff"
     id="base" />
  <metadata
     id="metadata975">
    <rdf:RDF>
      <cc:Work
         rdf:about="">
        <dc:format>image/svg+xml</dc:format>
        <dc:type
           rdf:resource="http://purl.org/dc/dcmitype/StillImage" />
        <dc:title></dc:title>
      </cc:Work>
    </rdf:RDF>
  </metadata>
  <g
     transform="translate(-2.2825774,-1.2707226)"
     id="layer1"
     inkscape:groupmode="layer"
     inkscape:label="Layer 1">
    <path
       id="path1594"
       style="fill:none;stroke:#ff0000;stroke-width:0.165;stroke-linecap:butt;stroke-linejoin:miter;stroke-miterlimit:4;stroke-dasharray:none;stroke-opacity:1"
       d="m 18.374904,16.567415 2.760371,-0.003 m 0,2e-6 a 2.4413991,2.4413991 0 0 1 1.063392,2.015324 2.4413991,2.4413991 0 0 1 -2.441397,2.441399 2.4413991,2.4413991 0 0 1 -2.441401,-2.441399 2.4413991,2.4413991 0 0 1 1.059035,-2.012336" />
    <path
       d="m 48.178263,44.546148 a 2.4413991,2.4413991 0 0 1 3.5e-4,-2.42e-4"
       style="fill:none;fill-opacity:1;stroke:#fe0000;stroke-width:0.117202;stroke-miterlimit:4;stroke-dasharray:none;stroke-opacity:1"
       id="path1586" />
    <g
       transform="translate(-0.90268376,-36.020662)"
       id="g1657">
      <circle
         r="10.946536"
         cy="48.30056"
         cx="49.907093"
         id="circle1553"
         style="fill:none;fill-opacity:0;stroke:#fe0000;stroke-width:0.106927;stroke-miterlimit:4;stroke-dasharray:none" />
      <path
         id="path1591"
         style="fill:none;stroke:#ff0000;stroke-width:0.165;stroke-linecap:butt;stroke-linejoin:miter;stroke-miterlimit:4;stroke-dasharray:none;stroke-opacity:1"
         d="m 48.524733,46.075186 2.76037,-0.003 m 0,3e-6 a 2.4413991,2.4413991 0 0 1 1.06339,2.015323 2.4413991,2.4413991 0 0 1 -2.4414,2.441399 2.4413991,2.4413991 0 0 1 -2.4414,-2.441399 2.4413991,2.4413991 0 0 1 1.05904,-2.012336" />
    </g>
    <circle
       style="fill:none;fill-opacity:0;stroke:#fe0000;stroke-width:0.166609;stroke-miterlimit:4;stroke-dasharray:none"
       id="circle1557"
       cx="19.757269"
       cy="18.792778"
       r="17.416695" />
  </g>
</svg>
