<?xml version="1.0" encoding="UTF-8" standalone="no"?>
<svg
   xmlns:dc="http://purl.org/dc/elements/1.1/"
   xmlns:cc="http://creativecommons.org/ns#"
   xmlns:rdf="http://www.w3.org/1999/02/22-rdf-syntax-ns#"
   xmlns:svg="http://www.w3.org/2000/svg"
   xmlns="http://www.w3.org/2000/svg"
   xmlns:sodipodi="http://sodipodi.sourceforge.net/DTD/sodipodi-0.dtd"
   xmlns:inkscape="http://www.inkscape.org/namespaces/inkscape"
   width="70.700348mm"
   height="57.801991mm"
   viewBox="0 0 70.700348 57.80199"
   version="1.1"
   id="svg978"
   inkscape:version="1.0 (4035a4fb49, 2020-05-01)"
   sodipodi:docname="Bobbin.svg">
  <defs
     id="defs972" />
  <sodipodi:namedview
     id="base"
     pagecolor="#ffffff"
     bordercolor="#666666"
     borderopacity="1.0"
     inkscape:pageopacity="0.0"
     inkscape:pageshadow="2"
     inkscape:zoom="2.8284271"
     inkscape:cx="57.59425"
     inkscape:cy="118.30243"
     inkscape:document-units="mm"
     inkscape:current-layer="layer1"
     inkscape:document-rotation="0"
     showgrid="false"
     fit-margin-top="0"
     fit-margin-left="0"
     fit-margin-right="0"
     fit-margin-bottom="0"
     inkscape:window-width="1920"
     inkscape:window-height="1022"
     inkscape:window-x="0"
     inkscape:window-y="0"
     inkscape:window-maximized="1" />
  <metadata
     id="metadata975">
    <rdf:RDF>
      <cc:Work
         rdf:about="">
        <dc:format>image/svg+xml</dc:format>
        <dc:type
           rdf:resource="http://purl.org/dc/dcmitype/StillImage" />
        <dc:title></dc:title>
      </cc:Work>
    </rdf:RDF>
  </metadata>
  <g
     inkscape:label="Layer 1"
     inkscape:groupmode="layer"
     id="layer1"
     transform="translate(-2.2825774,-1.2707226)">
    <g
       id="g1653"
       transform="translate(2.1102057,34.673815)">
      <circle
         r="8.0366077"
         cy="13.398897"
         cx="17.259726"
         id="path1541"
         style="fill:none;fill-opacity:0;stroke:#fe0000;stroke-width:0.126785;stroke-miterlimit:4;stroke-dasharray:none" />
      <circle
         r="10.946536"
         cy="13.398897"
         cx="17.259726"
         id="path1543"
         style="fill:none;fill-opacity:0;stroke:#fe0000;stroke-width:0.106927;stroke-miterlimit:4;stroke-dasharray:none" />
    </g>
    <path
       id="path1586"
       style="fill:none;fill-opacity:1;stroke:#fe0000;stroke-width:0.117202;stroke-miterlimit:4;stroke-dasharray:none;stroke-opacity:1"
       d="m 48.178263,44.546148 a 2.4413991,2.4413991 0 0 1 3.5e-4,-2.42e-4" />
    <g
       id="g1657"
       transform="translate(-4.7230769,-0.81802849)">
      <circle
         style="fill:none;fill-opacity:0;stroke:#fe0000;stroke-width:0.106927;stroke-miterlimit:4;stroke-dasharray:none"
         id="circle1553"
         cx="49.907093"
         cy="48.30056"
         r="10.946536" />
      <path
         d="m 48.524733,46.075186 2.76037,-0.003 m 0,3e-6 a 2.4413991,2.4413991 0 0 1 1.06339,2.015323 2.4413991,2.4413991 0 0 1 -2.4414,2.441399 2.4413991,2.4413991 0 0 1 -2.4414,-2.441399 2.4413991,2.4413991 0 0 1 1.05904,-2.012336"
         style="fill:none;stroke:#ff0000;stroke-width:0.165;stroke-linecap:butt;stroke-linejoin:miter;stroke-miterlimit:4;stroke-dasharray:none;stroke-opacity:1"
         id="path1591" />
    </g>
    <g
       id="g1649"
       transform="translate(0.11062713,-24.402014)">
      <circle
         r="17.416695"
         cy="43.265358"
         cx="19.671949"
         id="path1547"
         style="fill:none;fill-opacity:0;stroke:#fe0000;stroke-width:0.166609;stroke-miterlimit:4;stroke-dasharray:none" />
      <circle
         r="8.0366077"
         cy="43.265358"
         cx="19.671949"
         id="circle1549"
         style="fill:none;fill-opacity:0;stroke:#fe0000;stroke-width:0.126785;stroke-miterlimit:4;stroke-dasharray:none" />
      <path
         d="M 19.67169,30.731756 A 12.533497,12.533497 0 0 0 7.1386053,43.265358 12.533497,12.533497 0 0 0 19.67169,55.79896 12.533497,12.533497 0 0 0 32.205293,43.265358 12.533497,12.533497 0 0 0 19.67169,30.731756 Z m -0.0217,1.586983 a 10.946536,10.946536 0 0 1 0.0217,0 10.946536,10.946536 0 0 1 0.143145,10e-4 10.946536,10.946536 0 0 1 0.143144,0.0026 10.946536,10.946536 0 0 1 0.143143,0.0047 10.946536,10.946536 0 0 1 0.143144,0.0067 10.946536,10.946536 0 0 1 0.142627,0.0083 10.946536,10.946536 0 0 1 0.142626,0.01033 10.946536,10.946536 0 0 1 0.142626,0.0124 10.946536,10.946536 0 0 1 0.142629,0.01395 10.946536,10.946536 0 0 1 0.142111,0.0155 10.946536,10.946536 0 0 1 0.14211,0.01809 10.946536,10.946536 0 0 1 0.141592,0.01964 10.946536,10.946536 0 0 1 0.141594,0.02119 10.946536,10.946536 0 0 1 0.141076,0.02326 10.946536,10.946536 0 0 1 0.141076,0.02532 10.946536,10.946536 0 0 1 0.14056,0.02687 10.946536,10.946536 0 0 1 0.140044,0.02894 10.946536,10.946536 0 0 1 0.140044,0.03049 10.946536,10.946536 0 0 1 0.139009,0.03256 10.946536,10.946536 0 0 1 0.13901,0.03411 10.946536,10.946536 0 0 1 0.138493,0.03617 10.946536,10.946536 0 0 1 0.137975,0.03772 10.946536,10.946536 0 0 1 0.137459,0.03979 10.946536,10.946536 0 0 1 0.136943,0.04134 10.946536,10.946536 0 0 1 0.136427,0.04341 10.946536,10.946536 0 0 1 0.135909,0.04496 10.946536,10.946536 0 0 1 0.135392,0.04703 10.946536,10.946536 0 0 1 0.134358,0.04858 10.946536,10.946536 0 0 1 0.133842,0.05013 10.946536,10.946536 0 0 1 0.133324,0.05219 10.946536,10.946536 0 0 1 0.13281,0.05374 10.946536,10.946536 0 0 1 0.131773,0.05581 10.946536,10.946536 0 0 1 0.13126,0.05736 10.946536,10.946536 0 0 1 0.130225,0.05891 10.946536,10.946536 0 0 1 0.129707,0.06046 10.946536,10.946536 0 0 1 0.128675,0.06253 10.946536,10.946536 0 0 1 0.128156,0.06408 10.946536,10.946536 0 0 1 0.127124,0.06563 10.946536,10.946536 0 0 1 0.12609,0.06718 10.946536,10.946536 0 0 1 0.125574,0.06925 10.946536,10.946536 0 0 1 0.124542,0.0708 10.946536,10.946536 0 0 1 0.123505,0.07235 10.946536,10.946536 0 0 1 0.122473,0.0739 10.946536,10.946536 0 0 1 0.121441,0.07545 10.946536,10.946536 0 0 1 0.120407,0.077 10.946536,10.946536 0 0 1 0.119888,0.07855 10.946536,10.946536 0 0 1 0.11834,0.0801 10.946536,10.946536 0 0 1 0.117305,0.08165 10.946536,10.946536 0 0 1 0.116788,0.0832 10.946536,10.946536 0 0 1 0.115239,0.08527 10.946536,10.946536 0 0 1 0.114205,0.08578 10.946536,10.946536 0 0 1 0.112654,0.08785 10.946536,10.946536 0 0 1 0.112138,0.0894 10.946536,10.946536 0 0 1 0.110588,0.09095 10.946536,10.946536 0 0 1 0.109553,0.09198 10.946536,10.946536 0 0 1 0.108522,0.09353 10.946536,10.946536 0 0 1 0.106968,0.09508 10.946536,10.946536 0 0 1 0.105937,0.09612 10.946536,10.946536 0 0 1 0.104389,0.09767 10.946536,10.946536 0 0 1 0.103351,0.09922 10.946536,10.946536 0 0 1 0.101804,0.100253 10.946536,10.946536 0 0 1 0.100769,0.101802 10.946536,10.946536 0 0 1 0.09922,0.103353 10.946536,10.946536 0 0 1 0.09767,0.10387 10.946536,10.946536 0 0 1 0.09663,0.105937 10.946536,10.946536 0 0 1 0.09509,0.10697 10.946536,10.946536 0 0 1 0.09405,0.108004 10.946536,10.946536 0 0 1 0.0925,0.109037 10.946536,10.946536 0 0 1 0.09043,0.110587 10.946536,10.946536 0 0 1 0.08992,0.111621 10.946536,10.946536 0 0 1 0.08785,0.113172 10.946536,10.946536 0 0 1 0.0863,0.113688 10.946536,10.946536 0 0 1 0.08526,0.115238 10.946536,10.946536 0 0 1 0.0832,0.116272 10.946536,10.946536 0 0 1 0.08216,0.117306 10.946536,10.946536 0 0 1 0.08062,0.118339 10.946536,10.946536 0 0 1 0.07855,0.119373 10.946536,10.946536 0 0 1 0.07752,0.120406 10.946536,10.946536 0 0 1 0.07545,0.121439 10.946536,10.946536 0 0 1 0.07441,0.122473 10.946536,10.946536 0 0 1 0.07235,0.123507 10.946536,10.946536 0 0 1 0.0708,0.124023 10.946536,10.946536 0 0 1 0.06925,0.125574 10.946536,10.946536 0 0 1 0.0677,0.126091 10.946536,10.946536 0 0 1 0.06615,0.126607 10.946536,10.946536 0 0 1 0.06408,0.128157 10.946536,10.946536 0 0 1 0.06304,0.128675 10.946536,10.946536 0 0 1 0.06098,0.129191 10.946536,10.946536 0 0 1 0.05891,0.130741 10.946536,10.946536 0 0 1 0.05788,0.130742 10.946536,10.946536 0 0 1 0.05581,0.131775 10.946536,10.946536 0 0 1 0.05374,0.132291 10.946536,10.946536 0 0 1 0.05271,0.133325 10.946536,10.946536 0 0 1 0.05064,0.133842 10.946536,10.946536 0 0 1 0.04857,0.134359 10.946536,10.946536 0 0 1 0.04702,0.135392 10.946536,10.946536 0 0 1 0.04548,0.135909 10.946536,10.946536 0 0 1 0.04341,0.135909 10.946536,10.946536 0 0 1 0.04186,0.136943 10.946536,10.946536 0 0 1 0.03979,0.137459 10.946536,10.946536 0 0 1 0.03824,0.137976 10.946536,10.946536 0 0 1 0.03669,0.138493 10.946536,10.946536 0 0 1 0.03462,0.13901 10.946536,10.946536 0 0 1 0.03256,0.139009 10.946536,10.946536 0 0 1 0.031,0.140043 10.946536,10.946536 0 0 1 0.02894,0.140044 10.946536,10.946536 0 0 1 0.02739,0.140559 10.946536,10.946536 0 0 1 0.02532,0.14056 10.946536,10.946536 0 0 1 0.02325,0.141077 10.946536,10.946536 0 0 1 0.02222,0.141593 10.946536,10.946536 0 0 1 0.01964,0.141594 10.946536,10.946536 0 0 1 0.01809,0.14211 10.946536,10.946536 0 0 1 0.01602,0.14211 10.946536,10.946536 0 0 1 0.01447,0.142627 10.946536,10.946536 0 0 1 0.0124,0.142627 10.946536,10.946536 0 0 1 0.01033,0.142627 10.946536,10.946536 0 0 1 0.0088,0.142627 10.946536,10.946536 0 0 1 0.0067,0.143144 10.946536,10.946536 0 0 1 0.0052,0.143143 10.946536,10.946536 0 0 1 0.0031,0.142627 10.946536,10.946536 0 0 1 0.001,0.143144 10.946536,10.946536 0 0 1 0,0.02222 10.946536,10.946536 0 0 1 -0.001,0.143144 10.946536,10.946536 0 0 1 -0.0026,0.143143 10.946536,10.946536 0 0 1 -0.0047,0.142627 10.946536,10.946536 0 0 1 -0.0067,0.143144 10.946536,10.946536 0 0 1 -0.0083,0.142627 10.946536,10.946536 0 0 1 -0.01033,0.143143 10.946536,10.946536 0 0 1 -0.01188,0.142629 10.946536,10.946536 0 0 1 -0.01395,0.14211 10.946536,10.946536 0 0 1 -0.01602,0.14211 10.946536,10.946536 0 0 1 -0.01757,0.142111 10.946536,10.946536 0 0 1 -0.01964,0.141591 10.946536,10.946536 0 0 1 -0.0217,0.141595 10.946536,10.946536 0 0 1 -0.02325,0.141076 10.946536,10.946536 0 0 1 -0.02532,0.141075 10.946536,10.946536 0 0 1 -0.02687,0.14056 10.946536,10.946536 0 0 1 -0.02842,0.140044 10.946536,10.946536 0 0 1 -0.03101,0.140044 10.946536,10.946536 0 0 1 -0.03255,0.139526 10.946536,10.946536 0 0 1 -0.03411,0.138493 10.946536,10.946536 0 0 1 -0.03617,0.138494 10.946536,10.946536 0 0 1 -0.03772,0.137975 10.946536,10.946536 0 0 1 -0.03979,0.137974 10.946536,10.946536 0 0 1 -0.04134,0.136943 10.946536,10.946536 0 0 1 -0.04341,0.136428 10.946536,10.946536 0 0 1 -0.04496,0.135392 10.946536,10.946536 0 0 1 -0.04703,0.135393 10.946536,10.946536 0 0 1 -0.04857,0.134874 10.946536,10.946536 0 0 1 -0.05013,0.133842 10.946536,10.946536 0 0 1 -0.0522,0.133326 10.946536,10.946536 0 0 1 -0.05374,0.132292 10.946536,10.946536 0 0 1 -0.05581,0.131773 10.946536,10.946536 0 0 1 -0.05685,0.13126 10.946536,10.946536 0 0 1 -0.05943,0.130741 10.946536,10.946536 0 0 1 -0.06046,0.129191 10.946536,10.946536 0 0 1 -0.06253,0.12919 10.946536,10.946536 0 0 1 -0.06408,0.127641 10.946536,10.946536 0 0 1 -0.06563,0.127124 10.946536,10.946536 0 0 1 -0.06718,0.126608 10.946536,10.946536 0 0 1 -0.06925,0.125056 10.946536,10.946536 0 0 1 -0.0708,0.124542 10.946536,10.946536 0 0 1 -0.07234,0.123505 10.946536,10.946536 0 0 1 -0.07338,0.122472 10.946536,10.946536 0 0 1 -0.07596,0.121442 10.946536,10.946536 0 0 1 -0.077,0.120922 10.946536,10.946536 0 0 1 -0.07855,0.119372 10.946536,10.946536 0 0 1 -0.0801,0.11834 10.946536,10.946536 0 0 1 -0.08165,0.117822 10.946536,10.946536 0 0 1 -0.0832,0.116271 10.946536,10.946536 0 0 1 -0.08475,0.115239 10.946536,10.946536 0 0 1 -0.0863,0.114205 10.946536,10.946536 0 0 1 -0.08785,0.11317 10.946536,10.946536 0 0 1 -0.0894,0.111623 10.946536,10.946536 0 0 1 -0.09043,0.110588 10.946536,10.946536 0 0 1 -0.0925,0.109553 10.946536,10.946536 0 0 1 -0.09354,0.108522 10.946536,10.946536 0 0 1 -0.09457,0.106968 10.946536,10.946536 0 0 1 -0.09663,0.105936 10.946536,10.946536 0 0 1 -0.09767,0.104389 10.946536,10.946536 0 0 1 -0.09922,0.103352 10.946536,10.946536 0 0 1 -0.100253,0.101803 10.946536,10.946536 0 0 1 -0.101801,0.10077 10.946536,10.946536 0 0 1 -0.102839,0.09922 10.946536,10.946536 0 0 1 -0.104386,0.09819 10.946536,10.946536 0 0 1 -0.105936,0.09663 10.946536,10.946536 0 0 1 -0.106971,0.09509 10.946536,10.946536 0 0 1 -0.108003,0.09353 10.946536,10.946536 0 0 1 -0.109038,0.0925 10.946536,10.946536 0 0 1 -0.110587,0.09095 10.946536,10.946536 0 0 1 -0.11162,0.0894 10.946536,10.946536 0 0 1 -0.113173,0.08785 10.946536,10.946536 0 0 1 -0.113686,0.08681 10.946536,10.946536 0 0 1 -0.115239,0.08475 10.946536,10.946536 0 0 1 -0.116272,0.08372 10.946536,10.946536 0 0 1 -0.117305,0.08165 10.946536,10.946536 0 0 1 -0.11834,0.08062 10.946536,10.946536 0 0 1 -0.119373,0.07907 10.946536,10.946536 0 0 1 -0.120406,0.077 10.946536,10.946536 0 0 1 -0.121439,0.07596 10.946536,10.946536 0 0 1 -0.122473,0.0739 10.946536,10.946536 0 0 1 -0.123507,0.07235 10.946536,10.946536 0 0 1 -0.124023,0.07131 10.946536,10.946536 0 0 1 -0.125574,0.06925 10.946536,10.946536 0 0 1 -0.12609,0.0677 10.946536,10.946536 0 0 1 -0.126609,0.06563 10.946536,10.946536 0 0 1 -0.128156,0.0646 10.946536,10.946536 0 0 1 -0.128675,0.06253 10.946536,10.946536 0 0 1 -0.12919,0.06098 10.946536,10.946536 0 0 1 -0.130226,0.05943 10.946536,10.946536 0 0 1 -0.131257,0.05736 10.946536,10.946536 0 0 1 -0.131776,0.05581 10.946536,10.946536 0 0 1 -0.132291,0.05426 10.946536,10.946536 0 0 1 -0.133326,0.05219 10.946536,10.946536 0 0 1 -0.133843,0.05064 10.946536,10.946536 0 0 1 -0.134358,0.04857 10.946536,10.946536 0 0 1 -0.135392,0.04754 10.946536,10.946536 0 0 1 -0.135393,0.04496 10.946536,10.946536 0 0 1 -0.136424,0.04392 10.946536,10.946536 0 0 1 -0.136943,0.04134 10.946536,10.946536 0 0 1 -0.137459,0.04031 10.946536,10.946536 0 0 1 -0.137975,0.03824 10.946536,10.946536 0 0 1 -0.138494,0.03617 10.946536,10.946536 0 0 1 -0.139009,0.03462 10.946536,10.946536 0 0 1 -0.13901,0.03255 10.946536,10.946536 0 0 1 -0.140043,0.03101 10.946536,10.946536 0 0 1 -0.140044,0.02894 10.946536,10.946536 0 0 1 -0.14056,0.02739 10.946536,10.946536 0 0 1 -0.14056,0.02532 10.946536,10.946536 0 0 1 -0.141076,0.02377 10.946536,10.946536 0 0 1 -0.141594,0.0217 10.946536,10.946536 0 0 1 -0.141592,0.01964 10.946536,10.946536 0 0 1 -0.142111,0.01809 10.946536,10.946536 0 0 1 -0.14211,0.01602 10.946536,10.946536 0 0 1 -0.142626,0.01447 10.946536,10.946536 0 0 1 -0.142111,0.0124 10.946536,10.946536 0 0 1 -0.143144,0.01085 10.946536,10.946536 0 0 1 -0.142627,0.0083 10.946536,10.946536 0 0 1 -0.143145,0.0072 10.946536,10.946536 0 0 1 -0.142626,0.0047 10.946536,10.946536 0 0 1 -0.143145,0.0031 10.946536,10.946536 0 0 1 -0.143142,0.0016 10.946536,10.946536 0 0 1 -0.02222,0 10.946536,10.946536 0 0 1 -0.142627,-10e-4 10.946536,10.946536 0 0 1 -0.143142,-0.0031 10.946536,10.946536 0 0 1 -0.143145,-0.0047 10.946536,10.946536 0 0 1 -0.143142,-0.0062 10.946536,10.946536 0 0 1 -0.142629,-0.0088 10.946536,10.946536 0 0 1 -0.142626,-0.01033 10.946536,10.946536 0 0 1 -0.142626,-0.01188 10.946536,10.946536 0 0 1 -0.142629,-0.01396 10.946536,10.946536 0 0 1 -0.142108,-0.01602 10.946536,10.946536 0 0 1 -0.14211,-0.01757 10.946536,10.946536 0 0 1 -0.141595,-0.01964 10.946536,10.946536 0 0 1 -0.141594,-0.0217 10.946536,10.946536 0 0 1 -0.141076,-0.02325 10.946536,10.946536 0 0 1 -0.141076,-0.0248 10.946536,10.946536 0 0 1 -0.14056,-0.02687 10.946536,10.946536 0 0 1 -0.140044,-0.02894 10.946536,10.946536 0 0 1 -0.140044,-0.03049 10.946536,10.946536 0 0 1 -0.139009,-0.03256 10.946536,10.946536 0 0 1 -0.13901,-0.03462 10.946536,10.946536 0 0 1 -0.138493,-0.03566 10.946536,10.946536 0 0 1 -0.137975,-0.03824 10.946536,10.946536 0 0 1 -0.137459,-0.03979 10.946536,10.946536 0 0 1 -0.136943,-0.04134 10.946536,10.946536 0 0 1 -0.136425,-0.04341 10.946536,10.946536 0 0 1 -0.135911,-0.04496 10.946536,10.946536 0 0 1 -0.13539,-0.04651 10.946536,10.946536 0 0 1 -0.13436,-0.04858 10.946536,10.946536 0 0 1 -0.134358,-0.05064 10.946536,10.946536 0 0 1 -0.133327,-0.05219 10.946536,10.946536 0 0 1 -0.132291,-0.05374 10.946536,10.946536 0 0 1 -0.131773,-0.0553 10.946536,10.946536 0 0 1 -0.13126,-0.05736 10.946536,10.946536 0 0 1 -0.130223,-0.05891 10.946536,10.946536 0 0 1 -0.129709,-0.06098 10.946536,10.946536 0 0 1 -0.128675,-0.06253 10.946536,10.946536 0 0 1 -0.128156,-0.06356 10.946536,10.946536 0 0 1 -0.127124,-0.06615 10.946536,10.946536 0 0 1 -0.12609,-0.06718 10.946536,10.946536 0 0 1 -0.125574,-0.06925 10.946536,10.946536 0 0 1 -0.12454,-0.07028 10.946536,10.946536 0 0 1 -0.123507,-0.07235 10.946536,10.946536 0 0 1 -0.122473,-0.0739 10.946536,10.946536 0 0 1 -0.121441,-0.07545 10.946536,10.946536 0 0 1 -0.120923,-0.077 10.946536,10.946536 0 0 1 -0.119372,-0.07907 10.946536,10.946536 0 0 1 -0.11834,-0.0801 10.946536,10.946536 0 0 1 -0.117822,-0.08165 10.946536,10.946536 0 0 1 -0.116271,-0.0832 10.946536,10.946536 0 0 1 -0.115239,-0.08475 10.946536,10.946536 0 0 1 -0.114205,-0.0863 10.946536,10.946536 0 0 1 -0.11317,-0.08785 10.946536,10.946536 0 0 1 -0.111622,-0.0894 10.946536,10.946536 0 0 1 -0.110588,-0.09043 10.946536,10.946536 0 0 1 -0.109554,-0.09199 10.946536,10.946536 0 0 1 -0.108521,-0.09353 10.946536,10.946536 0 0 1 -0.106968,-0.09509 10.946536,10.946536 0 0 1 -0.105937,-0.09663 10.946536,10.946536 0 0 1 -0.104386,-0.09767 10.946536,10.946536 0 0 1 -0.103354,-0.0987 10.946536,10.946536 0 0 1 -0.101801,-0.10077 10.946536,10.946536 0 0 1 -0.10077,-0.101803 10.946536,10.946536 0 0 1 -0.09922,-0.102836 10.946536,10.946536 0 0 1 -0.09819,-0.104386 10.946536,10.946536 0 0 1 -0.09612,-0.105421 10.946536,10.946536 0 0 1 -0.0956,-0.106968 10.946536,10.946536 0 0 1 -0.09353,-0.108006 10.946536,10.946536 0 0 1 -0.0925,-0.109553 10.946536,10.946536 0 0 1 -0.09095,-0.110588 10.946536,10.946536 0 0 1 -0.0894,-0.11162 10.946536,10.946536 0 0 1 -0.08785,-0.112654 10.946536,10.946536 0 0 1 -0.0863,-0.114205 10.946536,10.946536 0 0 1 -0.08526,-0.115239 10.946536,10.946536 0 0 1 -0.0832,-0.116271 10.946536,10.946536 0 0 1 -0.08216,-0.117306 10.946536,10.946536 0 0 1 -0.08062,-0.11834 10.946536,10.946536 0 0 1 -0.07855,-0.119372 10.946536,10.946536 0 0 1 -0.07751,-0.120407 10.946536,10.946536 0 0 1 -0.07596,-0.121438 10.946536,10.946536 0 0 1 -0.0739,-0.122473 10.946536,10.946536 0 0 1 -0.07235,-0.122992 10.946536,10.946536 0 0 1 -0.07131,-0.124539 10.946536,10.946536 0 0 1 -0.06925,-0.125058 10.946536,10.946536 0 0 1 -0.067179,-0.12609 10.946536,10.946536 0 0 1 -0.06614,-0.127124 10.946536,10.946536 0 0 1 -0.0646,-0.12764 10.946536,10.946536 0 0 1 -0.06253,-0.128675 10.946536,10.946536 0 0 1 -0.06098,-0.129707 10.946536,10.946536 0 0 1 -0.05891,-0.130225 10.946536,10.946536 0 0 1 -0.05788,-0.131257 10.946536,10.946536 0 0 1 -0.05581,-0.131776 10.946536,10.946536 0 0 1 -0.05374,-0.132292 10.946536,10.946536 0 0 1 -0.05271,-0.133326 10.946536,10.946536 0 0 1 -0.05064,-0.133842 10.946536,10.946536 0 0 1 -0.04858,-0.134358 10.946536,10.946536 0 0 1 -0.04702,-0.135393 10.946536,10.946536 0 0 1 -0.04548,-0.135392 10.946536,10.946536 0 0 1 -0.04341,-0.136425 10.946536,10.946536 0 0 1 -0.04186,-0.136943 10.946536,10.946536 0 0 1 -0.04031,-0.137459 10.946536,10.946536 0 0 1 -0.03773,-0.137977 10.946536,10.946536 0 0 1 -0.03669,-0.138491 10.946536,10.946536 0 0 1 -0.03462,-0.138494 10.946536,10.946536 0 0 1 -0.03255,-0.139525 10.946536,10.946536 0 0 1 -0.03101,-0.139528 10.946536,10.946536 0 0 1 -0.02894,-0.140041 10.946536,10.946536 0 0 1 -0.02739,-0.140563 10.946536,10.946536 0 0 1 -0.02532,-0.141076 10.946536,10.946536 0 0 1 -0.02377,-0.141075 10.946536,10.946536 0 0 1 -0.0217,-0.141595 10.946536,10.946536 0 0 1 -0.01964,-0.141592 10.946536,10.946536 0 0 1 -0.01809,-0.14211 10.946536,10.946536 0 0 1 -0.01602,-0.14211 10.946536,10.946536 0 0 1 -0.01447,-0.142111 10.946536,10.946536 0 0 1 -0.0124,-0.142626 10.946536,10.946536 0 0 1 -0.01033,-0.142628 10.946536,10.946536 0 0 1 -0.0088,-0.143144 10.946536,10.946536 0 0 1 -0.0067,-0.142627 10.946536,10.946536 0 0 1 -0.0052,-0.143144 10.946536,10.946536 0 0 1 -0.0031,-0.143143 10.946536,10.946536 0 0 1 -10e-4,-0.143144 10.946536,10.946536 0 0 1 0,-0.0217 10.946536,10.946536 0 0 1 5.16e-4,-0.143144 10.946536,10.946536 0 0 1 0.0031,-0.143143 10.946536,10.946536 0 0 1 0.0047,-0.143144 10.946536,10.946536 0 0 1 0.0067,-0.142627 10.946536,10.946536 0 0 1 0.0083,-0.143144 10.946536,10.946536 0 0 1 0.01033,-0.142627 10.946536,10.946536 0 0 1 0.01189,-0.142627 10.946536,10.946536 0 0 1 0.01395,-0.142627 10.946536,10.946536 0 0 1 0.01602,-0.14211 10.946536,10.946536 0 0 1 0.01757,-0.14211 10.946536,10.946536 0 0 1 0.01964,-0.141594 10.946536,10.946536 0 0 1 0.0217,-0.141593 10.946536,10.946536 0 0 1 0.02325,-0.141077 10.946536,10.946536 0 0 1 0.02481,-0.141076 10.946536,10.946536 0 0 1 0.02739,-0.14056 10.946536,10.946536 0 0 1 0.02842,-0.140043 10.946536,10.946536 0 0 1 0.03101,-0.139527 10.946536,10.946536 0 0 1 0.03204,-0.139526 10.946536,10.946536 0 0 1 0.03462,-0.13901 10.946536,10.946536 0 0 1 0.03617,-0.138493 10.946536,10.946536 0 0 1 0.03772,-0.137976 10.946536,10.946536 0 0 1 0.03979,-0.137459 10.946536,10.946536 0 0 1 0.04134,-0.136942 10.946536,10.946536 0 0 1 0.04341,-0.136426 10.946536,10.946536 0 0 1 0.04496,-0.135909 10.946536,10.946536 0 0 1 0.04703,-0.135392 10.946536,10.946536 0 0 1 0.04857,-0.134359 10.946536,10.946536 0 0 1 0.05013,-0.133842 10.946536,10.946536 0 0 1 0.05219,-0.133325 10.946536,10.946536 0 0 1 0.05374,-0.132809 10.946536,10.946536 0 0 1 0.05581,-0.131775 10.946536,10.946536 0 0 1 0.05685,-0.131258 10.946536,10.946536 0 0 1 0.05943,-0.130224 10.946536,10.946536 0 0 1 0.06046,-0.129708 10.946536,10.946536 0 0 1 0.06253,-0.128675 10.946536,10.946536 0 0 1 0.06408,-0.128157 10.946536,10.946536 0 0 1 0.06563,-0.127124 10.946536,10.946536 0 0 1 0.067179,-0.126091 10.946536,10.946536 0 0 1 0.06925,-0.125573 10.946536,10.946536 0 0 1 0.07028,-0.124024 10.946536,10.946536 0 0 1 0.07235,-0.123506 10.946536,10.946536 0 0 1 0.0739,-0.12299 10.946536,10.946536 0 0 1 0.07545,-0.12144 10.946536,10.946536 0 0 1 0.07751,-0.120406 10.946536,10.946536 0 0 1 0.07855,-0.119889 10.946536,10.946536 0 0 1 0.0801,-0.118339 10.946536,10.946536 0 0 1 0.08165,-0.117306 10.946536,10.946536 0 0 1 0.0832,-0.116789 10.946536,10.946536 0 0 1 0.08475,-0.115238 10.946536,10.946536 0 0 1 0.0863,-0.114205 10.946536,10.946536 0 0 1 0.08785,-0.112655 10.946536,10.946536 0 0 1 0.0894,-0.112138 10.946536,10.946536 0 0 1 0.09043,-0.110587 10.946536,10.946536 0 0 1 0.09199,-0.109554 10.946536,10.946536 0 0 1 0.09405,-0.108004 10.946536,10.946536 0 0 1 0.09457,-0.107487 10.946536,10.946536 0 0 1 0.09663,-0.10542 10.946536,10.946536 0 0 1 0.09767,-0.104903 10.946536,10.946536 0 0 1 0.09922,-0.103353 10.946536,10.946536 0 0 1 0.100251,-0.101802 10.946536,10.946536 0 0 1 0.101804,-0.100769 10.946536,10.946536 0 0 1 0.102835,-0.09922 10.946536,10.946536 0 0 1 0.104386,-0.09767 10.946536,10.946536 0 0 1 0.105937,-0.09663 10.946536,10.946536 0 0 1 0.106452,-0.09509 10.946536,10.946536 0 0 1 0.108522,-0.09405 10.946536,10.946536 0 0 1 0.109037,-0.09198 10.946536,10.946536 0 0 1 0.110588,-0.09095 10.946536,10.946536 0 0 1 0.11162,-0.0894 10.946536,10.946536 0 0 1 0.113173,-0.08837 10.946536,10.946536 0 0 1 0.113689,-0.0863 10.946536,10.946536 0 0 1 0.115236,-0.08527 10.946536,10.946536 0 0 1 0.116274,-0.0832 10.946536,10.946536 0 0 1 0.117306,-0.08216 10.946536,10.946536 0 0 1 0.118337,-0.0801 10.946536,10.946536 0 0 1 0.119372,-0.07906 10.946536,10.946536 0 0 1 0.120407,-0.07751 10.946536,10.946536 0 0 1 0.121441,-0.07545 10.946536,10.946536 0 0 1 0.122473,-0.07441 10.946536,10.946536 0 0 1 0.123505,-0.07235 10.946536,10.946536 0 0 1 0.124023,-0.0708 10.946536,10.946536 0 0 1 0.125058,-0.06925 10.946536,10.946536 0 0 1 0.12609,-0.0677 10.946536,10.946536 0 0 1 0.127124,-0.06615 10.946536,10.946536 0 0 1 0.128159,-0.06408 10.946536,10.946536 0 0 1 0.128673,-0.06304 10.946536,10.946536 0 0 1 0.12919,-0.06046 10.946536,10.946536 0 0 1 0.130226,-0.05943 10.946536,10.946536 0 0 1 0.131259,-0.05736 10.946536,10.946536 0 0 1 0.131773,-0.05581 10.946536,10.946536 0 0 1 0.132292,-0.05426 10.946536,10.946536 0 0 1 0.133326,-0.05271 10.946536,10.946536 0 0 1 0.133842,-0.05013 10.946536,10.946536 0 0 1 0.134358,-0.04909 10.946536,10.946536 0 0 1 0.135393,-0.04702 10.946536,10.946536 0 0 1 0.135393,-0.04547 10.946536,10.946536 0 0 1 0.136424,-0.04341 10.946536,10.946536 0 0 1 0.136943,-0.04186 10.946536,10.946536 0 0 1 0.137459,-0.03979 10.946536,10.946536 0 0 1 0.137978,-0.03824 10.946536,10.946536 0 0 1 0.138491,-0.03669 10.946536,10.946536 0 0 1 0.138493,-0.03411 10.946536,10.946536 0 0 1 0.139528,-0.03307 10.946536,10.946536 0 0 1 0.139525,-0.03101 10.946536,10.946536 0 0 1 0.14056,-0.02894 10.946536,10.946536 0 0 1 0.140044,-0.02739 10.946536,10.946536 0 0 1 0.141076,-0.02532 10.946536,10.946536 0 0 1 0.141076,-0.02326 10.946536,10.946536 0 0 1 0.141594,-0.0217 10.946536,10.946536 0 0 1 0.141595,-0.02015 10.946536,10.946536 0 0 1 0.142107,-0.01809 10.946536,10.946536 0 0 1 0.142111,-0.01602 10.946536,10.946536 0 0 1 0.14211,-0.01447 10.946536,10.946536 0 0 1 0.142629,-0.0124 10.946536,10.946536 0 0 1 0.143142,-0.01033 10.946536,10.946536 0 0 1 0.142627,-0.0088 10.946536,10.946536 0 0 1 0.143144,-0.0067 10.946536,10.946536 0 0 1 0.142627,-0.0052 10.946536,10.946536 0 0 1 0.143145,-0.0031 10.946536,10.946536 0 0 1 0.143142,-0.001 z"
         style="fill:#000000;fill-opacity:1;stroke:none;stroke-width:0.133006;stroke-miterlimit:4;stroke-dasharray:none;stroke-opacity:1"
         id="path1627" />
    </g>
    <g
       id="g1644"
       transform="translate(8.9386451,0.24883114)">
      <circle
         style="fill:none;fill-opacity:0;stroke:#fe0000;stroke-width:0.166609;stroke-miterlimit:4;stroke-dasharray:none"
         id="circle1557"
         cx="46.544281"
         cy="18.521891"
         r="17.416695" />
      <path
         id="path1594"
         style="fill:none;stroke:#ff0000;stroke-width:0.165;stroke-linecap:butt;stroke-linejoin:miter;stroke-miterlimit:4;stroke-dasharray:none;stroke-opacity:1"
         d="m 45.161916,16.296528 2.760371,-0.003 m 0,2e-6 a 2.4413991,2.4413991 0 0 1 1.063392,2.015324 2.4413991,2.4413991 0 0 1 -2.441397,2.441399 2.4413991,2.4413991 0 0 1 -2.441401,-2.441399 2.4413991,2.4413991 0 0 1 1.059035,-2.012336" />
      <path
         id="path1639"
         style="fill:#000000;fill-opacity:1;stroke:none;stroke-width:0.133006;stroke-miterlimit:4;stroke-dasharray:none;stroke-opacity:1"
         d="M 46.544022,5.9882885 A 12.533497,12.533497 0 0 0 34.010937,18.521891 12.533497,12.533497 0 0 0 46.544022,31.055493 12.533497,12.533497 0 0 0 59.077625,18.521891 12.533497,12.533497 0 0 0 46.544022,5.9882885 Z m -0.0217,1.586983 a 10.946536,10.946536 0 0 1 0.0217,0 10.946536,10.946536 0 0 1 0.143145,10e-4 10.946536,10.946536 0 0 1 0.143144,0.0026 10.946536,10.946536 0 0 1 0.143143,0.0047 10.946536,10.946536 0 0 1 0.143144,0.0067 10.946536,10.946536 0 0 1 0.142627,0.0083 10.946536,10.946536 0 0 1 0.142626,0.01033 10.946536,10.946536 0 0 1 0.142626,0.0124 10.946536,10.946536 0 0 1 0.142629,0.01395 10.946536,10.946536 0 0 1 0.142111,0.0155 10.946536,10.946536 0 0 1 0.14211,0.01809 10.946536,10.946536 0 0 1 0.141592,0.01964 10.946536,10.946536 0 0 1 0.141594,0.02119 10.946536,10.946536 0 0 1 0.141076,0.02326 10.946536,10.946536 0 0 1 0.141076,0.02532 10.946536,10.946536 0 0 1 0.14056,0.02687 10.946536,10.946536 0 0 1 0.140044,0.02894 10.946536,10.946536 0 0 1 0.140044,0.03049 10.946536,10.946536 0 0 1 0.139009,0.03256 10.946536,10.946536 0 0 1 0.13901,0.03411 10.946536,10.946536 0 0 1 0.138493,0.03617 10.946536,10.946536 0 0 1 0.137975,0.03772 10.946536,10.946536 0 0 1 0.137459,0.03979 10.946536,10.946536 0 0 1 0.136943,0.04134 10.946536,10.946536 0 0 1 0.136427,0.04341 10.946536,10.946536 0 0 1 0.135909,0.04496 10.946536,10.946536 0 0 1 0.135392,0.04703 10.946536,10.946536 0 0 1 0.134358,0.04858 10.946536,10.946536 0 0 1 0.133842,0.05013 10.946536,10.946536 0 0 1 0.133324,0.05219 10.946536,10.946536 0 0 1 0.13281,0.05374 10.946536,10.946536 0 0 1 0.131773,0.05581 10.946536,10.946536 0 0 1 0.13126,0.05736 10.946536,10.946536 0 0 1 0.130225,0.05891 10.946536,10.946536 0 0 1 0.129707,0.06046 10.946536,10.946536 0 0 1 0.128675,0.06253 10.946536,10.946536 0 0 1 0.128156,0.06408 10.946536,10.946536 0 0 1 0.127124,0.06563 10.946536,10.946536 0 0 1 0.12609,0.06718 10.946536,10.946536 0 0 1 0.125574,0.06925 10.946536,10.946536 0 0 1 0.124542,0.0708 10.946536,10.946536 0 0 1 0.123505,0.07235 10.946536,10.946536 0 0 1 0.122473,0.0739 10.946536,10.946536 0 0 1 0.121441,0.07545 10.946536,10.946536 0 0 1 0.120407,0.077 10.946536,10.946536 0 0 1 0.119888,0.07855 10.946536,10.946536 0 0 1 0.11834,0.0801 10.946536,10.946536 0 0 1 0.117305,0.08165 10.946536,10.946536 0 0 1 0.116788,0.0832 10.946536,10.946536 0 0 1 0.115239,0.08527 10.946536,10.946536 0 0 1 0.114205,0.08578 10.946536,10.946536 0 0 1 0.112654,0.08785 10.946536,10.946536 0 0 1 0.112138,0.0894 10.946536,10.946536 0 0 1 0.110588,0.09095 10.946536,10.946536 0 0 1 0.109553,0.09198 10.946536,10.946536 0 0 1 0.108522,0.09353 10.946536,10.946536 0 0 1 0.106968,0.09508 10.946536,10.946536 0 0 1 0.105937,0.09612 10.946536,10.946536 0 0 1 0.104389,0.09767 10.946536,10.946536 0 0 1 0.103351,0.09922 10.946536,10.946536 0 0 1 0.101804,0.100253 10.946536,10.946536 0 0 1 0.100769,0.101802 10.946536,10.946536 0 0 1 0.09922,0.103353 10.946536,10.946536 0 0 1 0.09767,0.10387 10.946536,10.946536 0 0 1 0.09663,0.105937 10.946536,10.946536 0 0 1 0.09509,0.10697 10.946536,10.946536 0 0 1 0.09405,0.108004 10.946536,10.946536 0 0 1 0.0925,0.109037 10.946536,10.946536 0 0 1 0.09043,0.110588 10.946536,10.946536 0 0 1 0.08992,0.111621 10.946536,10.946536 0 0 1 0.08785,0.113172 10.946536,10.946536 0 0 1 0.0863,0.113688 10.946536,10.946536 0 0 1 0.08526,0.115238 10.946536,10.946536 0 0 1 0.0832,0.116272 10.946536,10.946536 0 0 1 0.08216,0.117305 10.946536,10.946536 0 0 1 0.08062,0.11834 10.946536,10.946536 0 0 1 0.07855,0.119372 10.946536,10.946536 0 0 1 0.07752,0.120406 10.946536,10.946536 0 0 1 0.07545,0.121439 10.946536,10.946536 0 0 1 0.07441,0.122473 10.946536,10.946536 0 0 1 0.07235,0.123507 10.946536,10.946536 0 0 1 0.0708,0.124023 10.946536,10.946536 0 0 1 0.06925,0.125574 10.946536,10.946536 0 0 1 0.0677,0.126091 10.946536,10.946536 0 0 1 0.06615,0.126607 10.946536,10.946536 0 0 1 0.06408,0.128157 10.946536,10.946536 0 0 1 0.06304,0.128675 10.946536,10.946536 0 0 1 0.06098,0.129191 10.946536,10.946536 0 0 1 0.05891,0.130741 10.946536,10.946536 0 0 1 0.05788,0.130742 10.946536,10.946536 0 0 1 0.05581,0.131775 10.946536,10.946536 0 0 1 0.05374,0.132291 10.946536,10.946536 0 0 1 0.05271,0.133325 10.946536,10.946536 0 0 1 0.05064,0.133842 10.946536,10.946536 0 0 1 0.04857,0.134359 10.946536,10.946536 0 0 1 0.04702,0.135392 10.946536,10.946536 0 0 1 0.04548,0.135909 10.946536,10.946536 0 0 1 0.04341,0.135909 10.946536,10.946536 0 0 1 0.04186,0.136943 10.946536,10.946536 0 0 1 0.03979,0.137459 10.946536,10.946536 0 0 1 0.03824,0.137976 10.946536,10.946536 0 0 1 0.03669,0.138493 10.946536,10.946536 0 0 1 0.03462,0.13901 10.946536,10.946536 0 0 1 0.03256,0.139009 10.946536,10.946536 0 0 1 0.031,0.140043 10.946536,10.946536 0 0 1 0.02894,0.140044 10.946536,10.946536 0 0 1 0.02739,0.140559 10.946536,10.946536 0 0 1 0.02532,0.14056 10.946536,10.946536 0 0 1 0.02325,0.141077 10.946536,10.946536 0 0 1 0.02222,0.141593 10.946536,10.946536 0 0 1 0.01964,0.141594 10.946536,10.946536 0 0 1 0.01809,0.14211 10.946536,10.946536 0 0 1 0.01602,0.14211 10.946536,10.946536 0 0 1 0.01447,0.142627 10.946536,10.946536 0 0 1 0.0124,0.142627 10.946536,10.946536 0 0 1 0.01033,0.142627 10.946536,10.946536 0 0 1 0.0088,0.142627 10.946536,10.946536 0 0 1 0.0067,0.143144 10.946536,10.946536 0 0 1 0.0052,0.143143 10.946536,10.946536 0 0 1 0.0031,0.142627 10.946536,10.946536 0 0 1 10e-4,0.143144 10.946536,10.946536 0 0 1 0,0.02222 10.946536,10.946536 0 0 1 -10e-4,0.143144 10.946536,10.946536 0 0 1 -0.0026,0.143143 10.946536,10.946536 0 0 1 -0.0047,0.142627 10.946536,10.946536 0 0 1 -0.0067,0.143144 10.946536,10.946536 0 0 1 -0.0083,0.142627 10.946536,10.946536 0 0 1 -0.01033,0.143143 10.946536,10.946536 0 0 1 -0.01188,0.142629 10.946536,10.946536 0 0 1 -0.01395,0.14211 10.946536,10.946536 0 0 1 -0.01602,0.14211 10.946536,10.946536 0 0 1 -0.01757,0.142111 10.946536,10.946536 0 0 1 -0.01964,0.141591 10.946536,10.946536 0 0 1 -0.0217,0.141595 10.946536,10.946536 0 0 1 -0.02325,0.141076 10.946536,10.946536 0 0 1 -0.02532,0.141075 10.946536,10.946536 0 0 1 -0.02687,0.14056 10.946536,10.946536 0 0 1 -0.02842,0.140044 10.946536,10.946536 0 0 1 -0.03101,0.140044 10.946536,10.946536 0 0 1 -0.03255,0.139526 10.946536,10.946536 0 0 1 -0.03411,0.138493 10.946536,10.946536 0 0 1 -0.03617,0.138494 10.946536,10.946536 0 0 1 -0.03772,0.137975 10.946536,10.946536 0 0 1 -0.03979,0.137974 10.946536,10.946536 0 0 1 -0.04134,0.136943 10.946536,10.946536 0 0 1 -0.04341,0.136428 10.946536,10.946536 0 0 1 -0.04496,0.135392 10.946536,10.946536 0 0 1 -0.04703,0.135393 10.946536,10.946536 0 0 1 -0.04857,0.134874 10.946536,10.946536 0 0 1 -0.05013,0.133842 10.946536,10.946536 0 0 1 -0.0522,0.133326 10.946536,10.946536 0 0 1 -0.05374,0.132292 10.946536,10.946536 0 0 1 -0.05581,0.131773 10.946536,10.946536 0 0 1 -0.05685,0.13126 10.946536,10.946536 0 0 1 -0.05943,0.130741 10.946536,10.946536 0 0 1 -0.06046,0.129191 10.946536,10.946536 0 0 1 -0.06253,0.12919 10.946536,10.946536 0 0 1 -0.06408,0.127641 10.946536,10.946536 0 0 1 -0.06563,0.127124 10.946536,10.946536 0 0 1 -0.06718,0.126608 10.946536,10.946536 0 0 1 -0.06925,0.125056 10.946536,10.946536 0 0 1 -0.0708,0.124542 10.946536,10.946536 0 0 1 -0.07234,0.123505 10.946536,10.946536 0 0 1 -0.07338,0.122472 10.946536,10.946536 0 0 1 -0.07596,0.121442 10.946536,10.946536 0 0 1 -0.077,0.120922 10.946536,10.946536 0 0 1 -0.07855,0.119372 10.946536,10.946536 0 0 1 -0.0801,0.11834 10.946536,10.946536 0 0 1 -0.08165,0.117822 10.946536,10.946536 0 0 1 -0.0832,0.116271 10.946536,10.946536 0 0 1 -0.08475,0.115239 10.946536,10.946536 0 0 1 -0.0863,0.114205 10.946536,10.946536 0 0 1 -0.08785,0.11317 10.946536,10.946536 0 0 1 -0.0894,0.111623 10.946536,10.946536 0 0 1 -0.09043,0.110588 10.946536,10.946536 0 0 1 -0.0925,0.109553 10.946536,10.946536 0 0 1 -0.09354,0.108522 10.946536,10.946536 0 0 1 -0.09457,0.106968 10.946536,10.946536 0 0 1 -0.09663,0.105936 10.946536,10.946536 0 0 1 -0.09767,0.104389 10.946536,10.946536 0 0 1 -0.09922,0.103352 10.946536,10.946536 0 0 1 -0.100253,0.101803 10.946536,10.946536 0 0 1 -0.101801,0.10077 10.946536,10.946536 0 0 1 -0.102839,0.09922 10.946536,10.946536 0 0 1 -0.104386,0.09819 10.946536,10.946536 0 0 1 -0.105936,0.09663 10.946536,10.946536 0 0 1 -0.106971,0.09509 10.946536,10.946536 0 0 1 -0.108003,0.09353 10.946536,10.946536 0 0 1 -0.109038,0.0925 10.946536,10.946536 0 0 1 -0.110587,0.09095 10.946536,10.946536 0 0 1 -0.11162,0.0894 10.946536,10.946536 0 0 1 -0.113173,0.08785 10.946536,10.946536 0 0 1 -0.113686,0.08681 10.946536,10.946536 0 0 1 -0.115239,0.08475 10.946536,10.946536 0 0 1 -0.116272,0.08372 10.946536,10.946536 0 0 1 -0.117305,0.08165 10.946536,10.946536 0 0 1 -0.11834,0.08062 10.946536,10.946536 0 0 1 -0.119373,0.07907 10.946536,10.946536 0 0 1 -0.120406,0.077 10.946536,10.946536 0 0 1 -0.121439,0.07596 10.946536,10.946536 0 0 1 -0.122473,0.0739 10.946536,10.946536 0 0 1 -0.123507,0.07235 10.946536,10.946536 0 0 1 -0.124023,0.07131 10.946536,10.946536 0 0 1 -0.125574,0.06925 10.946536,10.946536 0 0 1 -0.12609,0.0677 10.946536,10.946536 0 0 1 -0.126609,0.06563 10.946536,10.946536 0 0 1 -0.128156,0.0646 10.946536,10.946536 0 0 1 -0.128675,0.06253 10.946536,10.946536 0 0 1 -0.12919,0.06098 10.946536,10.946536 0 0 1 -0.130226,0.05943 10.946536,10.946536 0 0 1 -0.131257,0.05736 10.946536,10.946536 0 0 1 -0.131776,0.05581 10.946536,10.946536 0 0 1 -0.132291,0.05426 10.946536,10.946536 0 0 1 -0.133326,0.05219 10.946536,10.946536 0 0 1 -0.133843,0.05064 10.946536,10.946536 0 0 1 -0.134358,0.04857 10.946536,10.946536 0 0 1 -0.135392,0.04754 10.946536,10.946536 0 0 1 -0.135393,0.04496 10.946536,10.946536 0 0 1 -0.136424,0.04392 10.946536,10.946536 0 0 1 -0.136943,0.04134 10.946536,10.946536 0 0 1 -0.137459,0.04031 10.946536,10.946536 0 0 1 -0.137975,0.03824 10.946536,10.946536 0 0 1 -0.138494,0.03617 10.946536,10.946536 0 0 1 -0.139009,0.03462 10.946536,10.946536 0 0 1 -0.13901,0.03255 10.946536,10.946536 0 0 1 -0.140043,0.03101 10.946536,10.946536 0 0 1 -0.140044,0.02894 10.946536,10.946536 0 0 1 -0.14056,0.02739 10.946536,10.946536 0 0 1 -0.14056,0.02532 10.946536,10.946536 0 0 1 -0.141076,0.02377 10.946536,10.946536 0 0 1 -0.141594,0.0217 10.946536,10.946536 0 0 1 -0.141592,0.01964 10.946536,10.946536 0 0 1 -0.142111,0.01809 10.946536,10.946536 0 0 1 -0.14211,0.01602 10.946536,10.946536 0 0 1 -0.142626,0.01447 10.946536,10.946536 0 0 1 -0.142111,0.0124 10.946536,10.946536 0 0 1 -0.143144,0.01085 10.946536,10.946536 0 0 1 -0.142627,0.0083 10.946536,10.946536 0 0 1 -0.143145,0.0072 10.946536,10.946536 0 0 1 -0.142626,0.0047 10.946536,10.946536 0 0 1 -0.143145,0.0031 10.946536,10.946536 0 0 1 -0.143142,0.0016 10.946536,10.946536 0 0 1 -0.02222,0 10.946536,10.946536 0 0 1 -0.142627,-0.001 10.946536,10.946536 0 0 1 -0.143142,-0.0031 10.946536,10.946536 0 0 1 -0.143145,-0.0047 10.946536,10.946536 0 0 1 -0.143142,-0.0062 10.946536,10.946536 0 0 1 -0.142629,-0.0088 10.946536,10.946536 0 0 1 -0.142626,-0.01033 10.946536,10.946536 0 0 1 -0.142626,-0.01188 10.946536,10.946536 0 0 1 -0.142629,-0.01396 10.946536,10.946536 0 0 1 -0.142108,-0.01602 10.946536,10.946536 0 0 1 -0.14211,-0.01757 10.946536,10.946536 0 0 1 -0.141595,-0.01964 10.946536,10.946536 0 0 1 -0.141594,-0.0217 10.946536,10.946536 0 0 1 -0.141076,-0.02325 10.946536,10.946536 0 0 1 -0.141076,-0.0248 10.946536,10.946536 0 0 1 -0.14056,-0.02687 10.946536,10.946536 0 0 1 -0.140044,-0.02894 10.946536,10.946536 0 0 1 -0.140044,-0.03049 10.946536,10.946536 0 0 1 -0.139009,-0.03256 10.946536,10.946536 0 0 1 -0.13901,-0.03462 10.946536,10.946536 0 0 1 -0.138493,-0.03566 10.946536,10.946536 0 0 1 -0.137975,-0.03824 10.946536,10.946536 0 0 1 -0.137459,-0.03979 10.946536,10.946536 0 0 1 -0.136943,-0.04134 10.946536,10.946536 0 0 1 -0.136425,-0.04341 10.946536,10.946536 0 0 1 -0.135911,-0.04496 10.946536,10.946536 0 0 1 -0.13539,-0.04651 10.946536,10.946536 0 0 1 -0.13436,-0.04858 10.946536,10.946536 0 0 1 -0.134358,-0.05064 10.946536,10.946536 0 0 1 -0.133327,-0.05219 10.946536,10.946536 0 0 1 -0.132291,-0.05374 10.946536,10.946536 0 0 1 -0.131773,-0.0553 10.946536,10.946536 0 0 1 -0.13126,-0.05736 10.946536,10.946536 0 0 1 -0.130223,-0.05891 10.946536,10.946536 0 0 1 -0.129709,-0.06098 10.946536,10.946536 0 0 1 -0.128675,-0.06253 10.946536,10.946536 0 0 1 -0.128156,-0.06356 10.946536,10.946536 0 0 1 -0.127124,-0.06615 10.946536,10.946536 0 0 1 -0.12609,-0.06718 10.946536,10.946536 0 0 1 -0.125574,-0.06925 10.946536,10.946536 0 0 1 -0.12454,-0.07028 10.946536,10.946536 0 0 1 -0.123507,-0.07235 10.946536,10.946536 0 0 1 -0.122473,-0.0739 10.946536,10.946536 0 0 1 -0.121441,-0.07545 10.946536,10.946536 0 0 1 -0.120923,-0.077 10.946536,10.946536 0 0 1 -0.119372,-0.07907 10.946536,10.946536 0 0 1 -0.11834,-0.0801 10.946536,10.946536 0 0 1 -0.117822,-0.08165 10.946536,10.946536 0 0 1 -0.116271,-0.0832 10.946536,10.946536 0 0 1 -0.115239,-0.08475 10.946536,10.946536 0 0 1 -0.114205,-0.0863 10.946536,10.946536 0 0 1 -0.11317,-0.08785 10.946536,10.946536 0 0 1 -0.111622,-0.0894 10.946536,10.946536 0 0 1 -0.110588,-0.09043 10.946536,10.946536 0 0 1 -0.109554,-0.09199 10.946536,10.946536 0 0 1 -0.108521,-0.09353 10.946536,10.946536 0 0 1 -0.106968,-0.09509 10.946536,10.946536 0 0 1 -0.105937,-0.09663 10.946536,10.946536 0 0 1 -0.104386,-0.09767 10.946536,10.946536 0 0 1 -0.103354,-0.0987 10.946536,10.946536 0 0 1 -0.101801,-0.10077 10.946536,10.946536 0 0 1 -0.10077,-0.101803 10.946536,10.946536 0 0 1 -0.09922,-0.102836 10.946536,10.946536 0 0 1 -0.09819,-0.104386 10.946536,10.946536 0 0 1 -0.09612,-0.105421 10.946536,10.946536 0 0 1 -0.0956,-0.106968 10.946536,10.946536 0 0 1 -0.09353,-0.108006 10.946536,10.946536 0 0 1 -0.0925,-0.109553 10.946536,10.946536 0 0 1 -0.09095,-0.110588 10.946536,10.946536 0 0 1 -0.0894,-0.11162 10.946536,10.946536 0 0 1 -0.08785,-0.112654 10.946536,10.946536 0 0 1 -0.0863,-0.114205 10.946536,10.946536 0 0 1 -0.08526,-0.115239 10.946536,10.946536 0 0 1 -0.0832,-0.116271 10.946536,10.946536 0 0 1 -0.08216,-0.117306 10.946536,10.946536 0 0 1 -0.08062,-0.11834 10.946536,10.946536 0 0 1 -0.07855,-0.119372 10.946536,10.946536 0 0 1 -0.07751,-0.120407 10.946536,10.946536 0 0 1 -0.07596,-0.121438 10.946536,10.946536 0 0 1 -0.0739,-0.122473 10.946536,10.946536 0 0 1 -0.07235,-0.122992 10.946536,10.946536 0 0 1 -0.07131,-0.124539 10.946536,10.946536 0 0 1 -0.06925,-0.125058 10.946536,10.946536 0 0 1 -0.06718,-0.12609 10.946536,10.946536 0 0 1 -0.06614,-0.127124 10.946536,10.946536 0 0 1 -0.0646,-0.12764 10.946536,10.946536 0 0 1 -0.06253,-0.128675 10.946536,10.946536 0 0 1 -0.06098,-0.129707 10.946536,10.946536 0 0 1 -0.05891,-0.130225 10.946536,10.946536 0 0 1 -0.05788,-0.131257 10.946536,10.946536 0 0 1 -0.05581,-0.131776 10.946536,10.946536 0 0 1 -0.05374,-0.132292 10.946536,10.946536 0 0 1 -0.05271,-0.133326 10.946536,10.946536 0 0 1 -0.05064,-0.133842 10.946536,10.946536 0 0 1 -0.04858,-0.134358 10.946536,10.946536 0 0 1 -0.04702,-0.135393 10.946536,10.946536 0 0 1 -0.04548,-0.135392 10.946536,10.946536 0 0 1 -0.04341,-0.136425 10.946536,10.946536 0 0 1 -0.04186,-0.136943 10.946536,10.946536 0 0 1 -0.04031,-0.137459 10.946536,10.946536 0 0 1 -0.03773,-0.137977 10.946536,10.946536 0 0 1 -0.03669,-0.138491 10.946536,10.946536 0 0 1 -0.03462,-0.138494 10.946536,10.946536 0 0 1 -0.03255,-0.139525 10.946536,10.946536 0 0 1 -0.03101,-0.139528 10.946536,10.946536 0 0 1 -0.02894,-0.140041 10.946536,10.946536 0 0 1 -0.02739,-0.140563 10.946536,10.946536 0 0 1 -0.02532,-0.141076 10.946536,10.946536 0 0 1 -0.02377,-0.141075 10.946536,10.946536 0 0 1 -0.0217,-0.141595 10.946536,10.946536 0 0 1 -0.01964,-0.141592 10.946536,10.946536 0 0 1 -0.01809,-0.14211 10.946536,10.946536 0 0 1 -0.01602,-0.14211 10.946536,10.946536 0 0 1 -0.01447,-0.142111 10.946536,10.946536 0 0 1 -0.0124,-0.142626 10.946536,10.946536 0 0 1 -0.01033,-0.142628 10.946536,10.946536 0 0 1 -0.0088,-0.143144 10.946536,10.946536 0 0 1 -0.0067,-0.142627 10.946536,10.946536 0 0 1 -0.0052,-0.143144 10.946536,10.946536 0 0 1 -0.0031,-0.143143 10.946536,10.946536 0 0 1 -10e-4,-0.143144 10.946536,10.946536 0 0 1 0,-0.0217 10.946536,10.946536 0 0 1 5.16e-4,-0.143144 10.946536,10.946536 0 0 1 0.0031,-0.143143 10.946536,10.946536 0 0 1 0.0047,-0.143144 10.946536,10.946536 0 0 1 0.0067,-0.142627 10.946536,10.946536 0 0 1 0.0083,-0.143144 10.946536,10.946536 0 0 1 0.01033,-0.142627 10.946536,10.946536 0 0 1 0.01189,-0.142627 10.946536,10.946536 0 0 1 0.01395,-0.142627 10.946536,10.946536 0 0 1 0.01602,-0.14211 10.946536,10.946536 0 0 1 0.01757,-0.14211 10.946536,10.946536 0 0 1 0.01964,-0.141594 10.946536,10.946536 0 0 1 0.0217,-0.141593 10.946536,10.946536 0 0 1 0.02325,-0.141077 10.946536,10.946536 0 0 1 0.02481,-0.141076 10.946536,10.946536 0 0 1 0.02739,-0.14056 10.946536,10.946536 0 0 1 0.02842,-0.140043 10.946536,10.946536 0 0 1 0.03101,-0.139527 10.946536,10.946536 0 0 1 0.03204,-0.139526 10.946536,10.946536 0 0 1 0.03462,-0.13901 10.946536,10.946536 0 0 1 0.03617,-0.138493 10.946536,10.946536 0 0 1 0.03772,-0.137976 10.946536,10.946536 0 0 1 0.03979,-0.137459 10.946536,10.946536 0 0 1 0.04134,-0.136942 10.946536,10.946536 0 0 1 0.04341,-0.136426 10.946536,10.946536 0 0 1 0.04496,-0.135909 10.946536,10.946536 0 0 1 0.04703,-0.135392 10.946536,10.946536 0 0 1 0.04857,-0.134359 10.946536,10.946536 0 0 1 0.05013,-0.133842 10.946536,10.946536 0 0 1 0.05219,-0.133325 10.946536,10.946536 0 0 1 0.05374,-0.132809 10.946536,10.946536 0 0 1 0.05581,-0.131775 10.946536,10.946536 0 0 1 0.05685,-0.131258 10.946536,10.946536 0 0 1 0.05943,-0.130224 10.946536,10.946536 0 0 1 0.06046,-0.129708 10.946536,10.946536 0 0 1 0.06253,-0.128675 10.946536,10.946536 0 0 1 0.06408,-0.128157 10.946536,10.946536 0 0 1 0.06563,-0.127124 10.946536,10.946536 0 0 1 0.06718,-0.126091 10.946536,10.946536 0 0 1 0.06925,-0.125573 10.946536,10.946536 0 0 1 0.07028,-0.124024 10.946536,10.946536 0 0 1 0.07235,-0.123506 10.946536,10.946536 0 0 1 0.0739,-0.12299 10.946536,10.946536 0 0 1 0.07545,-0.12144 10.946536,10.946536 0 0 1 0.07751,-0.120406 10.946536,10.946536 0 0 1 0.07855,-0.119889 10.946536,10.946536 0 0 1 0.0801,-0.118339 10.946536,10.946536 0 0 1 0.08165,-0.117306 10.946536,10.946536 0 0 1 0.0832,-0.116789 10.946536,10.946536 0 0 1 0.08475,-0.115238 10.946536,10.946536 0 0 1 0.0863,-0.114205 10.946536,10.946536 0 0 1 0.08785,-0.112655 10.946536,10.946536 0 0 1 0.0894,-0.112138 10.946536,10.946536 0 0 1 0.09043,-0.110587 10.946536,10.946536 0 0 1 0.09199,-0.109554 10.946536,10.946536 0 0 1 0.09405,-0.108004 10.946536,10.946536 0 0 1 0.09457,-0.107487 10.946536,10.946536 0 0 1 0.09663,-0.10542 10.946536,10.946536 0 0 1 0.09767,-0.104903 10.946536,10.946536 0 0 1 0.09922,-0.103353 10.946536,10.946536 0 0 1 0.100251,-0.101802 10.946536,10.946536 0 0 1 0.101804,-0.100769 10.946536,10.946536 0 0 1 0.102835,-0.09922 10.946536,10.946536 0 0 1 0.104386,-0.09767 10.946536,10.946536 0 0 1 0.105937,-0.09663 10.946536,10.946536 0 0 1 0.106452,-0.09509 10.946536,10.946536 0 0 1 0.108522,-0.09405 10.946536,10.946536 0 0 1 0.109037,-0.09198 10.946536,10.946536 0 0 1 0.110588,-0.09095 10.946536,10.946536 0 0 1 0.11162,-0.089396 10.946536,10.946536 0 0 1 0.113173,-0.08837 10.946536,10.946536 0 0 1 0.113689,-0.0863 10.946536,10.946536 0 0 1 0.115236,-0.08527 10.946536,10.946536 0 0 1 0.116274,-0.0832 10.946536,10.946536 0 0 1 0.117306,-0.08216 10.946536,10.946536 0 0 1 0.118337,-0.0801 10.946536,10.946536 0 0 1 0.119372,-0.07906 10.946536,10.946536 0 0 1 0.120407,-0.07751 10.946536,10.946536 0 0 1 0.121441,-0.07545 10.946536,10.946536 0 0 1 0.122473,-0.07441 10.946536,10.946536 0 0 1 0.123505,-0.07235 10.946536,10.946536 0 0 1 0.124023,-0.0708 10.946536,10.946536 0 0 1 0.125058,-0.06925 10.946536,10.946536 0 0 1 0.12609,-0.0677 10.946536,10.946536 0 0 1 0.127124,-0.06615 10.946536,10.946536 0 0 1 0.128159,-0.06408 10.946536,10.946536 0 0 1 0.128673,-0.06304 10.946536,10.946536 0 0 1 0.12919,-0.06046 10.946536,10.946536 0 0 1 0.130226,-0.05943 10.946536,10.946536 0 0 1 0.131259,-0.05736 10.946536,10.946536 0 0 1 0.131773,-0.05581 10.946536,10.946536 0 0 1 0.132292,-0.05426 10.946536,10.946536 0 0 1 0.133326,-0.05271 10.946536,10.946536 0 0 1 0.133842,-0.05013 10.946536,10.946536 0 0 1 0.134358,-0.04909 10.946536,10.946536 0 0 1 0.135393,-0.04702 10.946536,10.946536 0 0 1 0.135393,-0.04547 10.946536,10.946536 0 0 1 0.136424,-0.04341 10.946536,10.946536 0 0 1 0.136943,-0.04186 10.946536,10.946536 0 0 1 0.137459,-0.03979 10.946536,10.946536 0 0 1 0.137978,-0.03824 10.946536,10.946536 0 0 1 0.138491,-0.03669 10.946536,10.946536 0 0 1 0.138493,-0.03411 10.946536,10.946536 0 0 1 0.139528,-0.03307 10.946536,10.946536 0 0 1 0.139525,-0.03101 10.946536,10.946536 0 0 1 0.14056,-0.02894 10.946536,10.946536 0 0 1 0.140044,-0.02739 10.946536,10.946536 0 0 1 0.141076,-0.02532 10.946536,10.946536 0 0 1 0.141076,-0.02326 10.946536,10.946536 0 0 1 0.141594,-0.0217 10.946536,10.946536 0 0 1 0.141595,-0.02015 10.946536,10.946536 0 0 1 0.142107,-0.01809 10.946536,10.946536 0 0 1 0.142111,-0.01602 10.946536,10.946536 0 0 1 0.14211,-0.01447 10.946536,10.946536 0 0 1 0.142629,-0.0124 10.946536,10.946536 0 0 1 0.143142,-0.01033 10.946536,10.946536 0 0 1 0.142627,-0.0088 10.946536,10.946536 0 0 1 0.143144,-0.0067 10.946536,10.946536 0 0 1 0.142627,-0.0052 10.946536,10.946536 0 0 1 0.143145,-0.0031 10.946536,10.946536 0 0 1 0.143142,-10e-4 z" />
    </g>
  </g>
</svg>
