<?xml version="1.0"?>
<!DOCTYPE svg PUBLIC "-//W3C//DTD SVG 1.1//EN" "http://www.w3.org/Graphics/SVG/1.1/DTD/svg11.dtd">
<svg width="128.29159200668335mm" height="88.83611238479614mm" viewBox="0 0 128.29159200668335 88.83611238479614" xmlns="http://www.w3.org/2000/svg" version="1.1">
<g id="Line004" transform="translate(48.495968,49.925611) scale(1,-1)">
<path id="Line004_w0000"  d="M -33.000057220458984 6.667690277099606 L 30.999942779541016 6.668167114257819 " stroke="#ff0000" stroke-width="0.35 px" style="stroke-width:0.35;stroke-miterlimit:4;stroke-dasharray:none;fill:none;fill-rule: evenodd "/>
<title>b'Line004'</title>
</g>
<g id="Line" transform="translate(48.495968,49.925611) scale(1,-1)">
<path id="Line_w0000"  d="M -32.99993896484375 48.667850494384766 L 31.00006103515625 48.6639862060547 " stroke="#ff0000" stroke-width="0.35 px" style="stroke-width:0.35;stroke-miterlimit:4;stroke-dasharray:none;fill:none;fill-rule: evenodd "/>
<title>b'Line'</title>
</g>
<g id="Construction" transform="translate(48.495968,49.925611) scale(1,-1)">
<path id="Line_w0000"  d="M -32.99993896484375 48.667850494384766 L 31.00006103515625 48.6639862060547 " stroke="#ff0000" stroke-width="0.35 px" style="stroke-width:0.35;stroke-miterlimit:4;stroke-dasharray:none;fill:none;fill-rule: evenodd "/>
<path id="Line004_w0000"  d="M -33.000057220458984 6.667690277099606 L 30.999942779541016 6.668167114257819 " stroke="#ff0000" stroke-width="0.35 px" style="stroke-width:0.35;stroke-miterlimit:4;stroke-dasharray:none;fill:none;fill-rule: evenodd "/>
<circle cx="-25.994680404663086" cy="27.628355026239653" r="2.6" stroke="#ff0000" stroke-width="0.35 px" style="stroke-width:0.35;stroke-miterlimit:4;stroke-dasharray:none;fill:none"/>
<path id="Line007_w0000"  d="M -44.2339723110199 -37.652740478515625 L 29.766027688980103 -37.65274047851562 " stroke="#ff0000" stroke-width="0.35 px" style="stroke-width:0.35;stroke-miterlimit:4;stroke-dasharray:none;fill:none;fill-rule: evenodd "/>
<path id="Clone2D014_w0000"  d="M -44.236727714538574 4.343300819396973 L 29.763272285461426 4.34330081939698 " stroke="#ff0000" stroke-width="0.35 px" style="stroke-width:0.35;stroke-miterlimit:4;stroke-dasharray:none;fill:none;fill-rule: evenodd "/>
<path id="mirror_w0000"  d="M 36.54184198379515 -30.00256538391112 L 40.55561304092406 -30.00249099731444 L 40.55561304092406 -32.99990081787108 L 50.55561304092406 -32.99990081787108 L 50.55561304092406 -30.00249099731444 L 55.194567203521714 -30.00000190734862 L 55.194567203521714 -24.00005626678464 L 53.194567203521714 -24.000001907348604 L 53.194378376007066 -20.826402187347384 L 55.194567203521714 -20.826402187347384 L 55.194567203521714 -14.000001907348604 L 60.194567203521714 -14.000001907348619 L 60.194567203521714 -20.826402187347398 L 62.194567203521714 -20.826402187347398 L 62.194567203521714 -24.00000190734862 L 60.194567203521714 -24.00000190734862 L 60.194567203521714 -30.00000190734862 L 64.55561304092407 -30.00249099731444 L 64.55561304092407 -33.00069618225096 L 74.55561304092407 -33.00069618225096 L 74.55561304092407 -30.00249099731444 L 78.53786373138428 -29.99980735778807 " stroke="#ff0000" stroke-width="0.35 px" style="stroke-width:0.35;stroke-miterlimit:4;stroke-dasharray:none;fill:none;fill-rule: evenodd "/>
<path id="mirror001_w0000"  d="M 78.53734111785889 -29.999217033386216 L 78.53734111785887 44.0007829666138 " stroke="#ff0000" stroke-width="0.35 px" style="stroke-width:0.35;stroke-miterlimit:4;stroke-dasharray:none;fill:none;fill-rule: evenodd "/>
<path id="mirror002_w0000"  d="M 78.53733682632443 44.00078582763675 L 74.55508613586423 44.003469467163114 L 74.55508613586423 47.00167465209964 L 64.55508613586423 47.00167465209964 L 64.55508613586423 44.003469467163114 L 60.194040298461886 44.000980377197294 L 60.194040298461886 38.000980377197294 L 62.194040298461886 38.000980377197294 L 62.194040298461886 34.82738065719607 L 60.194040298461886 34.82738065719607 L 60.194040298461886 28.000980377197294 L 55.194040298461886 28.000980377197294 L 55.194040298461886 34.82738065719607 L 53.19385147094724 34.82738065719607 L 53.194040298461886 38.000980377197294 L 55.194040298461886 38.00103473663333 L 55.194040298461886 44.000980377197294 L 50.55508613586423 44.003469467163114 L 50.55508613586423 47.000879287719755 L 40.55508613586423 47.00087928771977 L 40.55508613586423 44.00346946716313 L 36.54131507873532 44.00354385375981 " stroke="#ff0000" stroke-width="0.35 px" style="stroke-width:0.35;stroke-miterlimit:4;stroke-dasharray:none;fill:none;fill-rule: evenodd "/>
<path id="mirror003_w0000"  d="M 36.54129981994627 -29.996461629867532 L 36.54129981994626 44.00353837013249 " stroke="#ff0000" stroke-width="0.35 px" style="stroke-width:0.35;stroke-miterlimit:4;stroke-dasharray:none;fill:none;fill-rule: evenodd "/>
<title>b'Construction'</title>
</g>
<g id="Line003" transform="translate(48.495968,49.925611) scale(1,-1)">
<path id="Line003_w0000"  d="M -33.000057220458984 6.667690277099606 L -32.99993896484375 48.667850494384766 " stroke="#ff0000" stroke-width="0.35 px" style="stroke-width:0.35;stroke-miterlimit:4;stroke-dasharray:none;fill:none;fill-rule: evenodd "/>
<title>b'Line003'</title>
</g>
<g id="mirror003" transform="translate(48.495968,49.925611) scale(1,-1)">
<path id="mirror003_w0000"  d="M 36.54129981994627 -29.996461629867532 L 36.54129981994626 44.00353837013249 " stroke="#ff0000" stroke-width="0.35 px" style="stroke-width:0.35;stroke-miterlimit:4;stroke-dasharray:none;fill:none;fill-rule: evenodd "/>
<title>b'Mirror of Line007 (2D)001'</title>
</g>
<g id="Wire005" transform="translate(48.495968,49.925611) scale(1,-1)">
<path id="Wire005_w0000"  d="M 29.763275146484375 4.343296527862549 L 29.765958786010742 0.3610458374023437 L 32.764163970947266 0.36104583740234375 L 32.764163970947266 -9.638954162597656 L 29.765958786010742 -9.638954162597656 L 29.763469696044922 -14.0 L 23.763469696044922 -14.0 L 23.763469696044922 -12.0 L 20.5898699760437 -12.0 L 20.5898699760437 -14.0 L 13.763469696044922 -14.0 L 13.763469696044922 -19.0 L 20.5898699760437 -19.0 L 20.5898699760437 -21.00018882751465 L 23.763469696044922 -21.0 L 23.763524055480957 -19.0 L 29.763469696044922 -19.0 L 29.765958786010742 -23.638954162597656 L 32.76336860656738 -23.638954162597656 L 32.76336860656738 -33.638954162597656 L 29.765958786010742 -33.638954162597656 L 29.766033172607422 -37.65272521972656 " stroke="#ff0000" stroke-width="0.35 px" style="stroke-width:0.35;stroke-miterlimit:4;stroke-dasharray:none;fill:none;fill-rule: evenodd "/>
<title>b'Wire005'</title>
</g>
<g id="Clone2D" transform="translate(48.495968,49.925611) scale(1,-1)">
<circle cx="-25.994680404663086" cy="27.628355026239653" r="2.6" stroke="#ff0000" stroke-width="0.35 px" style="stroke-width:0.35;stroke-miterlimit:4;stroke-dasharray:none;fill:none"/>
<title>b'Circle002 (2D) (2D)'</title>
</g>
<g id="Rectangle002" transform="translate(48.495968,49.925611) scale(1,-1)">
<path id="Rectangle002_w0000"  d="M 23.002431869506836 34.68189620970685 L 25.002431869506836 34.68189620970685 L 25.002431869506836 44.68189620970685 L 23.002431869506836 44.68189620970685 L 23.002431869506836 34.68189620970685 " stroke="#ff0000" stroke-width="0.35 px" style="stroke-width:0.35;stroke-miterlimit:4;stroke-dasharray:none;fill:none;fill-rule: evenodd "/>
<title>b'Rectangle002'</title>
</g>
<g id="Circle002" transform="translate(48.495968,49.925611) scale(1,-1)">
<circle cx="24.005319595336914" cy="27.628355026239657" r="2.6" stroke="#ff0000" stroke-width="0.35 px" style="stroke-width:0.35;stroke-miterlimit:4;stroke-dasharray:none;fill:none"/>
<title>b'Circle002'</title>
</g>
<g id="Clone2D010" transform="translate(48.495968,49.925611) scale(1,-1)">
<path id="Clone2D010_w0000"  d="M 23.002431869506836 10.681896209706846 L 25.002431869506836 10.681896209706846 L 25.002431869506836 20.681896209706846 L 23.002431869506836 20.681896209706846 L 23.002431869506836 10.681896209706846 " stroke="#ff0000" stroke-width="0.35 px" style="stroke-width:0.35;stroke-miterlimit:4;stroke-dasharray:none;fill:none;fill-rule: evenodd "/>
<title>b'Rectangle002 (2D)'</title>
</g>
<g id="Clone2D011" transform="translate(48.495968,49.925611) scale(1,-1)">
<path id="Clone2D011_w0000"  d="M -26.997568130493164 34.68189620970685 L -24.997568130493164 34.68189620970685 L -24.997568130493164 44.68189620970685 L -26.997568130493164 44.68189620970685 L -26.997568130493164 34.68189620970685 " stroke="#ff0000" stroke-width="0.35 px" style="stroke-width:0.35;stroke-miterlimit:4;stroke-dasharray:none;fill:none;fill-rule: evenodd "/>
<title>b'Rectangle002 (2D)001'</title>
</g>
<g id="Clone2D012" transform="translate(48.495968,49.925611) scale(1,-1)">
<circle cx="-0.9946804046630859" cy="27.628355026239653" r="2.6" stroke="#ff0000" stroke-width="0.35 px" style="stroke-width:0.35;stroke-miterlimit:4;stroke-dasharray:none;fill:none"/>
<title>b'Circle002 (2D)'</title>
</g>
<g id="Clone2D013" transform="translate(48.495968,49.925611) scale(1,-1)">
<path id="Clone2D013_w0000"  d="M -26.997568130493164 10.681896209706846 L -24.997568130493164 10.681896209706846 L -24.997568130493164 20.681896209706846 L -26.997568130493164 20.681896209706846 L -26.997568130493164 10.681896209706846 " stroke="#ff0000" stroke-width="0.35 px" style="stroke-width:0.35;stroke-miterlimit:4;stroke-dasharray:none;fill:none;fill-rule: evenodd "/>
<title>b'Rectangle002 (2D) (2D)'</title>
</g>
<g id="Clone2D003" transform="translate(48.495968,49.925611) scale(1,-1)">
<path id="Clone2D003_w0000"  d="M 30.999942779541016 6.667690277099606 L 31.00006103515625 48.667850494384766 " stroke="#ff0000" stroke-width="0.35 px" style="stroke-width:0.35;stroke-miterlimit:4;stroke-dasharray:none;fill:none;fill-rule: evenodd "/>
<title>b'Line003 (2D)'</title>
</g>
<g id="Wire004" transform="translate(48.495968,49.925611) scale(1,-1)">
<path id="Wire004_w0000"  d="M -44.24007606506348 -37.65219831466675 L -44.2400016784668 -33.63842725753784 L -47.23741149902344 -33.63842725753784 L -47.23741149902344 -23.638427257537842 L -44.2400016784668 -23.638427257537842 L -44.23751258850098 -18.999473094940186 L -38.23756694793701 -18.999473094940186 L -38.23751258850098 -20.999473094940186 L -35.063912868499756 -20.999661922454834 L -35.063912868499756 -18.999473094940186 L -28.237512588500977 -18.999473094940186 L -28.237512588500977 -13.999473094940186 L -35.063912868499756 -13.999473094940186 L -35.063912868499756 -11.999473094940186 L -38.23751258850098 -11.999473094940186 L -38.23751258850098 -13.999473094940186 L -44.23751258850098 -13.999473094940186 L -44.2400016784668 -9.63842725753784 L -47.23820686340332 -9.63842725753784 L -47.23820686340332 0.3615727424621582 L -44.2400016784668 0.3615727424621582 L -44.23731803894043 4.343823432922363 " stroke="#ff0000" stroke-width="0.35 px" style="stroke-width:0.35;stroke-miterlimit:4;stroke-dasharray:none;fill:none;fill-rule: evenodd "/>
<title>b'Wire004'</title>
</g>
<g id="Line007" transform="translate(48.495968,49.925611) scale(1,-1)">
<path id="Line007_w0000"  d="M -44.2339723110199 -37.652740478515625 L 29.766027688980103 -37.65274047851562 " stroke="#ff0000" stroke-width="0.35 px" style="stroke-width:0.35;stroke-miterlimit:4;stroke-dasharray:none;fill:none;fill-rule: evenodd "/>
<title>b'Line007'</title>
</g>
<g id="Clone2D014" transform="translate(48.495968,49.925611) scale(1,-1)">
<path id="Clone2D014_w0000"  d="M -44.236727714538574 4.343300819396973 L 29.763272285461426 4.34330081939698 " stroke="#ff0000" stroke-width="0.35 px" style="stroke-width:0.35;stroke-miterlimit:4;stroke-dasharray:none;fill:none;fill-rule: evenodd "/>
<title>b'Line007 (2D)'</title>
</g>
<g id="mirror002" transform="translate(48.495968,49.925611) scale(1,-1)">
<path id="mirror002_w0000"  d="M 78.53733682632443 44.00078582763675 L 74.55508613586423 44.003469467163114 L 74.55508613586423 47.00167465209964 L 64.55508613586423 47.00167465209964 L 64.55508613586423 44.003469467163114 L 60.194040298461886 44.000980377197294 L 60.194040298461886 38.000980377197294 L 62.194040298461886 38.000980377197294 L 62.194040298461886 34.82738065719607 L 60.194040298461886 34.82738065719607 L 60.194040298461886 28.000980377197294 L 55.194040298461886 28.000980377197294 L 55.194040298461886 34.82738065719607 L 53.19385147094724 34.82738065719607 L 53.194040298461886 38.000980377197294 L 55.194040298461886 38.00103473663333 L 55.194040298461886 44.000980377197294 L 50.55508613586423 44.003469467163114 L 50.55508613586423 47.000879287719755 L 40.55508613586423 47.00087928771977 L 40.55508613586423 44.00346946716313 L 36.54131507873532 44.00354385375981 " stroke="#ff0000" stroke-width="0.35 px" style="stroke-width:0.35;stroke-miterlimit:4;stroke-dasharray:none;fill:none;fill-rule: evenodd "/>
<title>b'Mirror of Wire006'</title>
</g>
<g id="mirror001" transform="translate(48.495968,49.925611) scale(1,-1)">
<path id="mirror001_w0000"  d="M 78.53734111785889 -29.999217033386216 L 78.53734111785887 44.0007829666138 " stroke="#ff0000" stroke-width="0.35 px" style="stroke-width:0.35;stroke-miterlimit:4;stroke-dasharray:none;fill:none;fill-rule: evenodd "/>
<title>b'Mirror of Line007 (2D) (2D)'</title>
</g>
<g id="mirror" transform="translate(48.495968,49.925611) scale(1,-1)">
<path id="mirror_w0000"  d="M 36.54184198379515 -30.00256538391112 L 40.55561304092406 -30.00249099731444 L 40.55561304092406 -32.99990081787108 L 50.55561304092406 -32.99990081787108 L 50.55561304092406 -30.00249099731444 L 55.194567203521714 -30.00000190734862 L 55.194567203521714 -24.00005626678464 L 53.194567203521714 -24.000001907348604 L 53.194378376007066 -20.826402187347384 L 55.194567203521714 -20.826402187347384 L 55.194567203521714 -14.000001907348604 L 60.194567203521714 -14.000001907348619 L 60.194567203521714 -20.826402187347398 L 62.194567203521714 -20.826402187347398 L 62.194567203521714 -24.00000190734862 L 60.194567203521714 -24.00000190734862 L 60.194567203521714 -30.00000190734862 L 64.55561304092407 -30.00249099731444 L 64.55561304092407 -33.00069618225096 L 74.55561304092407 -33.00069618225096 L 74.55561304092407 -30.00249099731444 L 78.53786373138428 -29.99980735778807 " stroke="#ff0000" stroke-width="0.35 px" style="stroke-width:0.35;stroke-miterlimit:4;stroke-dasharray:none;fill:none;fill-rule: evenodd "/>
<title>b'Mirror of Wire007'</title>
</g>
</svg>