<?xml version="1.0" encoding="UTF-8" standalone="no"?>
<svg
   xmlns:dc="http://purl.org/dc/elements/1.1/"
   xmlns:cc="http://creativecommons.org/ns#"
   xmlns:rdf="http://www.w3.org/1999/02/22-rdf-syntax-ns#"
   xmlns:svg="http://www.w3.org/2000/svg"
   xmlns="http://www.w3.org/2000/svg"
   xmlns:sodipodi="http://sodipodi.sourceforge.net/DTD/sodipodi-0.dtd"
   xmlns:inkscape="http://www.inkscape.org/namespaces/inkscape"
   inkscape:version="1.0 (4035a4fb49, 2020-05-01)"
   sodipodi:docname="YstepperMount.svg"
   id="svg73"
   version="1.1"
   viewBox="0 0 110.29168 62.35"
   height="62.350002mm"
   width="110.29168mm">
  <metadata
     id="metadata79">
    <rdf:RDF>
      <cc:Work
         rdf:about="">
        <dc:format>image/svg+xml</dc:format>
        <dc:type
           rdf:resource="http://purl.org/dc/dcmitype/StillImage" />
        <dc:title></dc:title>
      </cc:Work>
    </rdf:RDF>
  </metadata>
  <defs
     id="defs77" />
  <sodipodi:namedview
     inkscape:current-layer="svg73"
     inkscape:window-maximized="1"
     inkscape:window-y="0"
     inkscape:window-x="0"
     inkscape:cy="91.428372"
     inkscape:cx="189.67398"
     inkscape:zoom="1.4572436"
     fit-margin-bottom="0"
     fit-margin-right="0"
     fit-margin-left="0"
     fit-margin-top="0"
     showgrid="false"
     id="namedview75"
     inkscape:window-height="1022"
     inkscape:window-width="1920"
     inkscape:pageshadow="2"
     inkscape:pageopacity="0"
     guidetolerance="10"
     gridtolerance="10"
     objecttolerance="10"
     borderopacity="1"
     bordercolor="#666666"
     pagecolor="#ffffff" />
  <g
     style="fill:none;stroke:#ff0000;stroke-opacity:1"
     transform="matrix(0,1,1,0,-32.382675,4.204163)"
     id="Line002">
    <title
       id="title3">b'Line002'</title>
  </g>
  <g
     style="fill:none;stroke:#ff0000;stroke-opacity:1"
     transform="matrix(0,1,1,0,-32.382675,4.204163)"
     id="Clone2D">
    <title
       id="title8">b'Circle001 (2D)'</title>
  </g>
  <g
     style="fill:none;stroke:#ff0000;stroke-opacity:1"
     transform="matrix(0,1,1,0,-32.382675,4.204163)"
     id="Circle">
    <title
       id="title13">b'Circle'</title>
  </g>
  <g
     style="fill:none;stroke:#ff0000;stroke-opacity:1"
     transform="matrix(0,1,1,0,-32.382675,4.204163)"
     id="Clone2D002">
    <title
       id="title18">b'Circle001 (2D)001'</title>
  </g>
  <g
     style="fill:none;stroke:#ff0000;stroke-opacity:1"
     transform="matrix(0,1,1,0,-32.382675,4.204163)"
     id="Circle001">
    <title
       id="title23">b'Circle001'</title>
  </g>
  <g
     style="fill:none;stroke:#ff0000;stroke-opacity:1"
     transform="matrix(0,1,1,0,-32.382675,4.204163)"
     id="Clone2D001">
    <title
       id="title28">b'Circle001 (2D) (2D)'</title>
  </g>
  <g
     style="fill:none;stroke:#ff0000;stroke-opacity:1"
     transform="matrix(0,1,1,0,-32.382675,4.204163)"
     id="Line">
    <title
       id="title32">b'Line'</title>
  </g>
  <g
     style="fill:none;stroke:#ff0000;stroke-opacity:1"
     transform="matrix(0,1,1,0,-32.382675,4.204163)"
     id="Line003">
    <title
       id="title36">b'Line003'</title>
  </g>
  <g
     style="fill:none;stroke:#ff0000;stroke-opacity:1"
     transform="matrix(0,1,1,0,-32.382675,4.204163)"
     id="Line001">
    <title
       id="title40">b'Line001'</title>
  </g>
  <g
     style="fill:none;stroke:#ff0000;stroke-opacity:1"
     transform="matrix(0,1,1,0,-32.382675,4.204163)"
     id="Line006">
    <title
       id="title44">b'Line006'</title>
  </g>
  <g
     style="fill:none;stroke:#ff0000;stroke-opacity:1"
     transform="matrix(0,1,1,0,-32.382675,4.204163)"
     id="Line005">
    <title
       id="title48">b'Line005'</title>
  </g>
  <g
     style="fill:none;stroke:#ff0000;stroke-opacity:1"
     transform="matrix(0,1,1,0,-32.382675,4.204163)"
     id="Line004">
    <title
       id="title52">b'Line004'</title>
  </g>
  <g
     style="fill:none;stroke:#ff0000;stroke-opacity:1"
     transform="matrix(0,1,1,0,-32.382675,4.204163)"
     id="Clone2D003">
    <title
       id="title57">b'Circle002 (2D)'</title>
  </g>
  <g
     style="fill:none;stroke:#ff0000;stroke-opacity:1"
     transform="matrix(0,1,1,0,-32.382675,4.204163)"
     id="Circle002">
    <title
       id="title62">b'Circle002'</title>
  </g>
  <g
     style="fill:none;stroke:#ff0000;stroke-opacity:1"
     transform="matrix(0,1,1,0,-32.382675,4.204163)"
     id="Line007">
    <title
       id="title66">b'Line007'</title>
  </g>
  <g
     style="fill:none;stroke:#ff0000;stroke-opacity:1"
     transform="matrix(0,1,1,0,54.828162,28.175)"
     id="Line008">
    <path
       d="M -27.999882,-12.653 -28,-1.6531601 m 42.012912,-3.0583267 -2.09e-4,-11.0122022 m 11.887296,26.012368 a 2.0999999,2.0999999 0 0 1 -2.1,2.1 2.0999999,2.0999999 0 0 1 -2.1,-2.1 2.0999999,2.0999999 0 0 1 2.1,-2.0999998 2.0999999,2.0999999 0 0 1 2.1,2.0999998 m 0,30.000002 a 2.0999999,2.0999999 0 0 1 -2.1,2.1 2.0999999,2.0999999 0 0 1 -2.1,-2.1 2.0999999,2.0999999 0 0 1 2.1,-2.1 2.0999999,2.0999999 0 0 1 2.1,2.1 M 14.012841,-4.7114868 H 34 m 0,1.659e-4 V 55.288513 m 0,0 H 14 m 0.01271,-71 L 14,-54.653162 m -42,2e-6 1.18e-4,42.00016 M 14,55.288513 -28,-1.6531601 M 9.9999996,-49.04134 a 1.6,1.6 0 0 1 -1.6,1.6 1.6,1.6 0 0 1 -1.6,-1.6 1.6,1.6 0 0 1 1.6,-1.6 1.6,1.6 0 0 1 1.6,1.6 M -20.8,-18.241339 a 1.6,1.6 0 0 1 -1.6,1.6 1.6,1.6 0 0 1 -1.6,-1.6 1.6,1.6 0 0 1 1.6,-1.6 1.6,1.6 0 0 1 1.6,1.6 m 0,-30.800001 a 1.6,1.6 0 0 1 -1.6,1.6 1.6,1.6 0 0 1 -1.6,-1.6 1.6,1.6 0 0 1 1.6,-1.6 1.6,1.6 0 0 1 1.6,1.6 m 25.05,15.38818 a 11.25,11.25 0 0 1 -11.25,11.25 11.25,11.25 0 0 1 -11.25,-11.25 11.25,11.25 0 0 1 11.25,-11.25 11.25,11.25 0 0 1 11.25,11.25 m 5.7499996,15.411821 a 1.6,1.6 0 0 1 -1.6,1.6 1.6,1.6 0 0 1 -1.6,-1.6 1.6,1.6 0 0 1 1.6,-1.6 1.6,1.6 0 0 1 1.6,1.6 M 14,-54.653162 l -42,2e-6"
       style="fill:none;fill-rule:evenodd;stroke:#ff0000;stroke-width:0.35;stroke-miterlimit:4;stroke-dasharray:none;stroke-opacity:1"
       id="Line008_w0000" />
    <title
       id="title70">b'Line008'</title>
  </g>
</svg>
