<?xml version="1.0"?>
<!DOCTYPE svg PUBLIC "-//W3C//DTD SVG 1.1//EN" "http://www.w3.org/Graphics/SVG/1.1/DTD/svg11.dtd">
<svg width="65.28012062072754mm" height="71.93316436767579mm" viewBox="0 0 65.28012062072754 71.93316436767579" xmlns="http://www.w3.org/2000/svg" version="1.1">
<g id="Line002" transform="translate(36.640001,25.640001) scale(1,-1)">
<path id="Line002_w0000"  d="M 17.0 -45.65316200256348 L -25.0 -45.653160095214844 " stroke="#ff0000" stroke-width="0.35 px" style="stroke-width:0.35;stroke-miterlimit:4;stroke-dasharray:none;fill:none;fill-rule: evenodd "/>
<title>b'Line002'</title>
</g>
<g id="Clone2D" transform="translate(36.640001,25.640001) scale(1,-1)">
<circle cx="11.4" cy="-9.241338348388673" r="1.6" stroke="#ff0000" stroke-width="0.35 px" style="stroke-width:0.35;stroke-miterlimit:4;stroke-dasharray:none;fill:none"/>
<title>b'Circle001 (2D)'</title>
</g>
<g id="Circle" transform="translate(36.640001,25.640001) scale(1,-1)">
<circle cx="-4.0" cy="-24.653160095214844" r="11.25" stroke="#ff0000" stroke-width="0.35 px" style="stroke-width:0.35;stroke-miterlimit:4;stroke-dasharray:none;fill:none"/>
<title>b'Circle'</title>
</g>
<g id="Clone2D002" transform="translate(36.640001,25.640001) scale(1,-1)">
<circle cx="-19.4" cy="-40.04133834838868" r="1.6" stroke="#ff0000" stroke-width="0.35 px" style="stroke-width:0.35;stroke-miterlimit:4;stroke-dasharray:none;fill:none"/>
<title>b'Circle001 (2D)001'</title>
</g>
<g id="Rectangle" transform="translate(36.640001,25.640001) scale(1,-1)">
<path id="Rectangle_w0000"  d="M 19.97882318496704 6.331111907969213 L 22.97882318496704 6.331111907969213 L 22.97882318496704 14.331111907969213 L 19.97882318496704 14.331111907969213 L 19.97882318496704 6.331111907969213 " stroke="#ff0000" stroke-width="0.35 px" style="stroke-width:0.35;stroke-miterlimit:4;stroke-dasharray:none;fill:none;fill-rule: evenodd "/>
<title>b'Rectangle'</title>
</g>
<g id="Circle001" transform="translate(36.640001,25.640001) scale(1,-1)">
<circle cx="-19.4" cy="-9.241338348388677" r="1.6" stroke="#ff0000" stroke-width="0.35 px" style="stroke-width:0.35;stroke-miterlimit:4;stroke-dasharray:none;fill:none"/>
<title>b'Circle001'</title>
</g>
<g id="Clone2D001" transform="translate(36.640001,25.640001) scale(1,-1)">
<circle cx="11.4" cy="-40.04133834838868" r="1.6" stroke="#ff0000" stroke-width="0.35 px" style="stroke-width:0.35;stroke-miterlimit:4;stroke-dasharray:none;fill:none"/>
<title>b'Circle001 (2D) (2D)'</title>
</g>
<g id="Line003" transform="translate(36.640001,25.640001) scale(1,-1)">
<path id="Line003_w0000"  d="M -36.0 -45.653160095214844 L -35.999881744384766 -3.6529998779296875 " stroke="#ff0000" stroke-width="0.35 px" style="stroke-width:0.35;stroke-miterlimit:4;stroke-dasharray:none;fill:none;fill-rule: evenodd "/>
<title>b'Line003'</title>
</g>
<g id="Clone2D008" transform="translate(36.640001,25.640001) scale(1,-1)">
<circle cx="-14.02859077453613" cy="20.34028931856581" r="1.6" stroke="#ff0000" stroke-width="0.35 px" style="stroke-width:0.35;stroke-miterlimit:4;stroke-dasharray:none;fill:none"/>
<title>b'Circle001 (2D) (2D)001 (2D)002'</title>
</g>
<g id="Construction" transform="translate(36.640001,25.640001) scale(1,-1)">
<path id="Clone2D010_w0000"  d="M 20.00248908996582 -41.638954162607604 L 22.00248908996582 -41.638954162607604 L 22.00248908996582 -31.638954162607604 L 20.00248908996582 -31.638954162607604 L 20.00248908996582 -41.638954162607604 " stroke="#ff0000" stroke-width="0.35 px" style="stroke-width:0.35;stroke-miterlimit:4;stroke-dasharray:none;fill:none;fill-rule: evenodd "/>
<circle cx="21.0053768157959" cy="-24.692495346074793" r="2.6" stroke="#ff0000" stroke-width="0.35 px" style="stroke-width:0.35;stroke-miterlimit:4;stroke-dasharray:none;fill:none"/>
<path id="Clone2D011_w0000"  d="M -29.99751091003418 -17.638954162607607 L -27.99751091003418 -17.638954162607607 L -27.99751091003418 -7.638954162607607 L -29.99751091003418 -7.638954162607607 L -29.99751091003418 -17.638954162607607 " stroke="#ff0000" stroke-width="0.35 px" style="stroke-width:0.35;stroke-miterlimit:4;stroke-dasharray:none;fill:none;fill-rule: evenodd "/>
<circle cx="-28.9946231842041" cy="-24.692495346074796" r="2.6" stroke="#ff0000" stroke-width="0.35 px" style="stroke-width:0.35;stroke-miterlimit:4;stroke-dasharray:none;fill:none"/>
<path id="Clone2D013_w0000"  d="M -29.99751091003418 -41.638954162607604 L -27.99751091003418 -41.638954162607604 L -27.99751091003418 -31.638954162607604 L -29.99751091003418 -31.638954162607604 L -29.99751091003418 -41.638954162607604 " stroke="#ff0000" stroke-width="0.35 px" style="stroke-width:0.35;stroke-miterlimit:4;stroke-dasharray:none;fill:none;fill-rule: evenodd "/>
<path id="Line005_w0000"  d="M 24.99464988708496 -45.653160095214844 L 28.0 -45.653160095214844 " stroke="#ff0000" stroke-width="0.35 px" style="stroke-width:0.35;stroke-miterlimit:4;stroke-dasharray:none;fill:none;fill-rule: evenodd "/>
<path id="Line006_w0000"  d="M -33.0 -45.653160095214844 L -36.0 -45.64748001098633 " stroke="#ff0000" stroke-width="0.35 px" style="stroke-width:0.35;stroke-miterlimit:4;stroke-dasharray:none;fill:none;fill-rule: evenodd "/>
<path id="Wire_w0000"  d="M 28.000118255615234 -3.6529998779296875 L 28.0 25.0 L -35.0 24.999999999999993 L -36.0 24.999999999999993 L -35.999881744384766 -3.6529998779296857 " stroke="#ff0000" stroke-width="0.35 px" style="stroke-width:0.35;stroke-miterlimit:4;stroke-dasharray:none;fill:none;fill-rule: evenodd "/>
<title>b'Construction'</title>
</g>
<g id="Clone2D006" transform="translate(36.640001,25.640001) scale(1,-1)">
<circle cx="5.971409225463869" cy="20.34028931856581" r="1.6" stroke="#ff0000" stroke-width="0.35 px" style="stroke-width:0.35;stroke-miterlimit:4;stroke-dasharray:none;fill:none"/>
<title>b'Circle001 (2D) (2D)001 (2D) (2D)'</title>
</g>
<g id="Clone2D009" transform="translate(36.640001,25.640001) scale(1,-1)">
<path id="Clone2D009_w0000"  d="M -31.02117681503296 6.331111907969208 L -28.02117681503296 6.331111907969208 L -28.02117681503296 14.331111907969209 L -31.02117681503296 14.331111907969209 L -31.02117681503296 6.331111907969208 " stroke="#ff0000" stroke-width="0.35 px" style="stroke-width:0.35;stroke-miterlimit:4;stroke-dasharray:none;fill:none;fill-rule: evenodd "/>
<title>b'Rectangle (2D)'</title>
</g>
<g id="Clone2D004" transform="translate(36.640001,25.640001) scale(1,-1)">
<circle cx="-14.02859077453613" cy="0.34028931856580513" r="1.6" stroke="#ff0000" stroke-width="0.35 px" style="stroke-width:0.35;stroke-miterlimit:4;stroke-dasharray:none;fill:none"/>
<title>b'Circle001 (2D) (2D)001'</title>
</g>
<g id="Clone2D005" transform="translate(36.640001,25.640001) scale(1,-1)">
<circle cx="5.971409225463869" cy="0.3402893185658087" r="1.6" stroke="#ff0000" stroke-width="0.35 px" style="stroke-width:0.35;stroke-miterlimit:4;stroke-dasharray:none;fill:none"/>
<title>b'Circle001 (2D) (2D)001 (2D)'</title>
</g>
<g id="Clone2D003" transform="translate(36.640001,25.640001) scale(1,-1)">
<path id="Clone2D003_w0000"  d="M 28.0 -45.653160095214844 L 28.000118255615234 -3.6529998779296875 " stroke="#ff0000" stroke-width="0.35 px" style="stroke-width:0.35;stroke-miterlimit:4;stroke-dasharray:none;fill:none;fill-rule: evenodd "/>
<title>b'Line003 (2D)'</title>
</g>
<g id="Line" transform="translate(36.640001,25.640001) scale(1,-1)">
<path id="Line_w0000"  d="M 16.99972152709961 -45.653160095214844 L 25.0 -45.653160095214844 " stroke="#ff0000" stroke-width="0.35 px" style="stroke-width:0.35;stroke-miterlimit:4;stroke-dasharray:none;fill:none;fill-rule: evenodd "/>
<title>b'Line'</title>
</g>
<g id="Clone2D010" transform="translate(36.640001,25.640001) scale(1,-1)">
<path id="Clone2D010_w0000"  d="M 20.00248908996582 -41.638954162607604 L 22.00248908996582 -41.638954162607604 L 22.00248908996582 -31.638954162607604 L 20.00248908996582 -31.638954162607604 L 20.00248908996582 -41.638954162607604 " stroke="#ff0000" stroke-width="0.35 px" style="stroke-width:0.35;stroke-miterlimit:4;stroke-dasharray:none;fill:none;fill-rule: evenodd "/>
<title>b'Rectangle002 (2D)'</title>
</g>
<g id="Rectangle002" transform="translate(36.640001,25.640001) scale(1,-1)">
<path id="Rectangle002_w0000"  d="M 20.00248908996582 -17.638954162607604 L 22.00248908996582 -17.638954162607604 L 22.00248908996582 -7.638954162607604 L 20.00248908996582 -7.638954162607604 L 20.00248908996582 -17.638954162607604 " stroke="#ff0000" stroke-width="0.35 px" style="stroke-width:0.35;stroke-miterlimit:4;stroke-dasharray:none;fill:none;fill-rule: evenodd "/>
<title>b'Rectangle002'</title>
</g>
<g id="Line004" transform="translate(36.640001,25.640001) scale(1,-1)">
<path id="Line004_w0000"  d="M -25.0 -45.653160095214844 L -33.0 -45.653160095214844 " stroke="#ff0000" stroke-width="0.35 px" style="stroke-width:0.35;stroke-miterlimit:4;stroke-dasharray:none;fill:none;fill-rule: evenodd "/>
<title>b'Line004'</title>
</g>
<g id="Rectangle001" transform="translate(36.640001,25.640001) scale(1,-1)">
<title>b'Rectangle001'</title>
</g>
<g id="Clone2D013" transform="translate(36.640001,25.640001) scale(1,-1)">
<path id="Clone2D013_w0000"  d="M -29.99751091003418 -41.638954162607604 L -27.99751091003418 -41.638954162607604 L -27.99751091003418 -31.638954162607604 L -29.99751091003418 -31.638954162607604 L -29.99751091003418 -41.638954162607604 " stroke="#ff0000" stroke-width="0.35 px" style="stroke-width:0.35;stroke-miterlimit:4;stroke-dasharray:none;fill:none;fill-rule: evenodd "/>
<title>b'Rectangle002 (2D) (2D)'</title>
</g>
<g id="Clone2D012" transform="translate(36.640001,25.640001) scale(1,-1)">
<circle cx="-28.9946231842041" cy="-24.692495346074796" r="2.6" stroke="#ff0000" stroke-width="0.35 px" style="stroke-width:0.35;stroke-miterlimit:4;stroke-dasharray:none;fill:none"/>
<title>b'Circle002 (2D)'</title>
</g>
<g id="Circle002" transform="translate(36.640001,25.640001) scale(1,-1)">
<circle cx="21.0053768157959" cy="-24.692495346074793" r="2.6" stroke="#ff0000" stroke-width="0.35 px" style="stroke-width:0.35;stroke-miterlimit:4;stroke-dasharray:none;fill:none"/>
<title>b'Circle002'</title>
</g>
<g id="Clone2D011" transform="translate(36.640001,25.640001) scale(1,-1)">
<path id="Clone2D011_w0000"  d="M -29.99751091003418 -17.638954162607607 L -27.99751091003418 -17.638954162607607 L -27.99751091003418 -7.638954162607607 L -29.99751091003418 -7.638954162607607 L -29.99751091003418 -17.638954162607607 " stroke="#ff0000" stroke-width="0.35 px" style="stroke-width:0.35;stroke-miterlimit:4;stroke-dasharray:none;fill:none;fill-rule: evenodd "/>
<title>b'Rectangle002 (2D)001'</title>
</g>
<g id="Line005" transform="translate(36.640001,25.640001) scale(1,-1)">
<path id="Line005_w0000"  d="M 24.99464988708496 -45.653160095214844 L 28.0 -45.653160095214844 " stroke="#ff0000" stroke-width="0.35 px" style="stroke-width:0.35;stroke-miterlimit:4;stroke-dasharray:none;fill:none;fill-rule: evenodd "/>
<title>b'Line005'</title>
</g>
<g id="Line006" transform="translate(36.640001,25.640001) scale(1,-1)">
<path id="Line006_w0000"  d="M -33.0 -45.653160095214844 L -36.0 -45.64748001098633 " stroke="#ff0000" stroke-width="0.35 px" style="stroke-width:0.35;stroke-miterlimit:4;stroke-dasharray:none;fill:none;fill-rule: evenodd "/>
<title>b'Line006'</title>
</g>
<g id="Wire" transform="translate(36.640001,25.640001) scale(1,-1)">
<path id="Wire_w0000"  d="M 28.000118255615234 -3.6529998779296875 L 28.0 25.0 L -35.0 24.999999999999993 L -36.0 24.999999999999993 L -35.999881744384766 -3.6529998779296857 " stroke="#ff0000" stroke-width="0.35 px" style="stroke-width:0.35;stroke-miterlimit:4;stroke-dasharray:none;fill:none;fill-rule: evenodd "/>
<title>b'Wire'</title>
</g>
</svg>